<mxfile host="app.diagrams.net" modified="2022-12-13T03:17:15.143Z" agent="5.0 (Windows NT 10.0; Win64; x64) AppleWebKit/537.36 (KHTML, like Gecko) Chrome/108.0.0.0 Safari/537.36" etag="IShlTBe_F5ZvjvlAx6qj" version="20.6.0" type="github">
  <diagram id="1xuTp7cKUyIgjRG4D764" name="Page-1">
    <mxGraphModel dx="2345" dy="318" grid="1" gridSize="10" guides="1" tooltips="1" connect="1" arrows="1" fold="1" page="1" pageScale="1" pageWidth="1654" pageHeight="2336" math="0" shadow="0">
      <root>
        <mxCell id="0" />
        <mxCell id="1" parent="0" />
        <mxCell id="S0qpPIx2wPPOewk5vcY--80" value="" style="endArrow=none;dashed=1;html=1;rounded=0;entryX=1;entryY=0.75;entryDx=0;entryDy=0;strokeWidth=2;jumpStyle=arc;targetPerimeterSpacing=2;sourcePerimeterSpacing=2;startArrow=classic;startFill=1;exitX=0;exitY=0.25;exitDx=0;exitDy=0;" parent="1" source="S0qpPIx2wPPOewk5vcY--19" edge="1">
          <mxGeometry width="50" height="50" relative="1" as="geometry">
            <mxPoint x="-668.4642614464155" y="750" as="sourcePoint" />
            <mxPoint x="-986.305213083489" y="646.5924999999997" as="targetPoint" />
            <Array as="points">
              <mxPoint x="-668.4642614464155" y="776" />
              <mxPoint x="-668.4642614464155" y="647" />
            </Array>
          </mxGeometry>
        </mxCell>
        <mxCell id="S0qpPIx2wPPOewk5vcY--21" value="&lt;font size=&quot;1&quot; face=&quot;Times New Roman&quot;&gt;&lt;b style=&quot;font-size: 20px;&quot;&gt;Encoder to Decoder Projection&lt;/b&gt;&lt;/font&gt;" style="rounded=1;whiteSpace=wrap;html=1;fontSize=16;strokeWidth=2;fillColor=#f5f5f5;strokeColor=#666666;fontColor=#333333;" parent="1" vertex="1">
          <mxGeometry x="-1427.9715367110741" y="608.62" width="446.6288665896926" height="50.63" as="geometry" />
        </mxCell>
        <mxCell id="S0qpPIx2wPPOewk5vcY--25" value="&lt;b&gt;Encoder Output&amp;nbsp; &amp;nbsp; &amp;nbsp;&lt;i&gt;H = [Audio length, Enc Dimension]&lt;/i&gt;&lt;/b&gt;" style="endArrow=classic;html=1;rounded=0;fontFamily=Times New Roman;fontSize=17;fontColor=#050505;strokeColor=#050505;strokeWidth=2;exitX=0.396;exitY=0.003;exitDx=0;exitDy=0;exitPerimeter=0;" parent="1" source="S0qpPIx2wPPOewk5vcY--36" edge="1">
          <mxGeometry x="-0.0187" y="-145" width="50" height="50" relative="1" as="geometry">
            <mxPoint x="-1159.7560146950773" y="730" as="sourcePoint" />
            <mxPoint x="-1234.1941591266927" y="660" as="targetPoint" />
            <Array as="points" />
            <mxPoint y="-1" as="offset" />
          </mxGeometry>
        </mxCell>
        <mxCell id="S0qpPIx2wPPOewk5vcY--35" value="&lt;b&gt;&lt;font style=&quot;font-size: 20px;&quot; color=&quot;#050505&quot; face=&quot;Times New Roman&quot;&gt;Encoder&lt;/font&gt;&lt;/b&gt;" style="text;html=1;strokeColor=none;fillColor=none;align=center;verticalAlign=middle;whiteSpace=wrap;rounded=0;fontSize=16;fontColor=#080808;" parent="1" vertex="1">
          <mxGeometry x="-1505.5820341873894" y="991.0980538217484" width="113.57277246125503" height="66.7181530308492" as="geometry" />
        </mxCell>
        <mxCell id="S0qpPIx2wPPOewk5vcY--76" value="&lt;b&gt;&lt;font style=&quot;&quot;&gt;&lt;span style=&quot;font-size: 16px;&quot;&gt;Raw Waveform Input&lt;/span&gt;&lt;br&gt;&lt;/font&gt;&lt;/b&gt;" style="text;html=1;strokeColor=none;fillColor=none;align=center;verticalAlign=middle;whiteSpace=wrap;rounded=0;" parent="1" vertex="1">
          <mxGeometry x="-1069.9042118231555" y="1055.86" width="247.60111855140136" height="43.12" as="geometry" />
        </mxCell>
        <mxCell id="cYHdGU8QMq9EJoT3NB7b-4" value="&lt;span style=&quot;color: rgb(5, 5, 5); font-family: &amp;quot;Times New Roman&amp;quot;; font-variant-ligatures: normal; font-variant-caps: normal; letter-spacing: normal; orphans: 2; text-align: center; text-indent: 0px; text-transform: none; widows: 2; word-spacing: 0px; -webkit-text-stroke-width: 0px; text-decoration-thickness: initial; text-decoration-style: initial; text-decoration-color: initial;&quot;&gt;&lt;i&gt;&lt;b&gt;&lt;span style=&quot;font-size: 17px;&quot;&gt;H&lt;/span&gt;&lt;span style=&quot;font-size: 14.1667px;&quot;&gt;&lt;sup&gt;&#39;&amp;nbsp;&lt;/sup&gt;&lt;/span&gt;&lt;span style=&quot;font-size: 17px;&quot;&gt;= [Audio length, Dec Dimension]&lt;/span&gt;&lt;/b&gt;&lt;/i&gt;&lt;/span&gt;" style="text;whiteSpace=wrap;html=1;" parent="1" vertex="1">
          <mxGeometry x="-940.0642377625696" y="612.3500000000001" width="416.85360881704645" height="40" as="geometry" />
        </mxCell>
        <mxCell id="cYHdGU8QMq9EJoT3NB7b-6" value="&lt;b style=&quot;font-style: normal; font-variant-ligatures: normal; font-variant-caps: normal; letter-spacing: normal; orphans: 2; text-indent: 0px; text-transform: none; widows: 2; word-spacing: 0px; -webkit-text-stroke-width: 0px; text-decoration-thickness: initial; text-decoration-style: initial; text-decoration-color: initial; color: rgb(5, 5, 5); font-family: &amp;quot;Times New Roman&amp;quot;; font-size: 17px; text-align: center;&quot;&gt;Decoder Iutput&amp;nbsp; &amp;nbsp; &amp;nbsp;&lt;/b&gt;" style="text;whiteSpace=wrap;html=1;rotation=0;" parent="1" vertex="1">
          <mxGeometry x="-796.5077949547184" y="653.35" width="168.72646071166164" height="40" as="geometry" />
        </mxCell>
        <mxCell id="cYHdGU8QMq9EJoT3NB7b-7" value="" style="group" parent="1" vertex="1" connectable="0">
          <mxGeometry x="-648.6140895979847" y="613" width="164.18077135837098" height="461.19" as="geometry" />
        </mxCell>
        <mxCell id="S0qpPIx2wPPOewk5vcY--97" value="" style="rounded=1;whiteSpace=wrap;html=1;fontSize=14;strokeWidth=1;fillColor=#d5e8d4;strokeColor=#000000;" parent="cYHdGU8QMq9EJoT3NB7b-7" vertex="1">
          <mxGeometry x="11.684506828984471" y="264.6771483868723" width="62.338074007553345" height="28.511355217341002" as="geometry" />
        </mxCell>
        <mxCell id="S0qpPIx2wPPOewk5vcY--98" value="" style="rounded=1;whiteSpace=wrap;html=1;fontSize=14;strokeWidth=1;fillColor=#d5e8d4;strokeColor=#000000;" parent="cYHdGU8QMq9EJoT3NB7b-7" vertex="1">
          <mxGeometry x="87.0285989057863" y="264.6771483868723" width="62.338074007553345" height="28.511355217341002" as="geometry" />
        </mxCell>
        <mxCell id="S0qpPIx2wPPOewk5vcY--19" value="" style="rounded=1;whiteSpace=wrap;html=1;fontSize=16;fontColor=#BABABA;strokeWidth=2;fillColor=default;gradientColor=#ffffff;" parent="cYHdGU8QMq9EJoT3NB7b-7" vertex="1">
          <mxGeometry y="91.38011012423631" width="158.61840534739065" height="288.26893816827436" as="geometry" />
        </mxCell>
        <mxCell id="S0qpPIx2wPPOewk5vcY--26" value="&lt;b&gt;&lt;font style=&quot;font-size: 20px;&quot; face=&quot;Times New Roman&quot; color=&quot;#050505&quot;&gt;Decoder&lt;/font&gt;&lt;/b&gt;" style="text;html=1;strokeColor=none;fillColor=none;align=center;verticalAlign=middle;whiteSpace=wrap;rounded=0;fontSize=16;fontColor=#080808;" parent="cYHdGU8QMq9EJoT3NB7b-7" vertex="1">
          <mxGeometry x="18.62084537268066" y="317.5374528319518" width="121.38890101915783" height="48.93840448270983" as="geometry" />
        </mxCell>
        <mxCell id="S0qpPIx2wPPOewk5vcY--27" value="&lt;font size=&quot;1&quot; face=&quot;Times New Roman&quot; color=&quot;#050505&quot;&gt;&lt;b style=&quot;font-size: 18px;&quot;&gt;Target Text&lt;/b&gt;&lt;/font&gt;" style="rounded=1;whiteSpace=wrap;html=1;fontSize=16;strokeWidth=2;fillColor=#ffe6cc;strokeColor=#050505;" parent="cYHdGU8QMq9EJoT3NB7b-7" vertex="1">
          <mxGeometry x="13.153205042076369" width="132.30158203451032" height="43.402248137512174" as="geometry" />
        </mxCell>
        <mxCell id="S0qpPIx2wPPOewk5vcY--29" value="" style="endArrow=classic;html=1;rounded=0;fontFamily=Times New Roman;fontSize=17;fontColor=#050505;strokeColor=#050505;exitX=0.5;exitY=1;exitDx=0;exitDy=0;entryX=0.5;entryY=0;entryDx=0;entryDy=0;strokeWidth=2;" parent="cYHdGU8QMq9EJoT3NB7b-7" source="S0qpPIx2wPPOewk5vcY--27" target="S0qpPIx2wPPOewk5vcY--19" edge="1">
          <mxGeometry width="50" height="50" relative="1" as="geometry">
            <mxPoint x="-360.19659859112835" y="253.4132590100031" as="sourcePoint" />
            <mxPoint x="-294.10528975182854" y="178.5817967039475" as="targetPoint" />
          </mxGeometry>
        </mxCell>
        <mxCell id="S0qpPIx2wPPOewk5vcY--100" value="&lt;font size=&quot;1&quot; face=&quot;Times New Roman&quot; color=&quot;#050505&quot;&gt;&lt;b style=&quot;font-size: 18px;&quot;&gt;Translation&lt;/b&gt;&lt;/font&gt;" style="rounded=1;whiteSpace=wrap;html=1;fontSize=16;strokeWidth=2;fillColor=#ffe6cc;strokeColor=#050505;" parent="cYHdGU8QMq9EJoT3NB7b-7" vertex="1">
          <mxGeometry x="12.897290282373188" y="417.78775186248777" width="132.30158203451032" height="43.402248137512174" as="geometry" />
        </mxCell>
        <mxCell id="S0qpPIx2wPPOewk5vcY--101" value="" style="endArrow=classic;html=1;rounded=0;fontSize=14;sourcePerimeterSpacing=2;targetPerimeterSpacing=2;strokeWidth=2;jumpStyle=arc;exitX=0.5;exitY=1;exitDx=0;exitDy=0;entryX=0.5;entryY=0;entryDx=0;entryDy=0;" parent="cYHdGU8QMq9EJoT3NB7b-7" source="S0qpPIx2wPPOewk5vcY--19" target="S0qpPIx2wPPOewk5vcY--100" edge="1">
          <mxGeometry width="50" height="50" relative="1" as="geometry">
            <mxPoint x="78.96693038425124" y="386.05950909371694" as="sourcePoint" />
            <mxPoint x="78.04181529230856" y="404.6781111504243" as="targetPoint" />
          </mxGeometry>
        </mxCell>
        <mxCell id="S0qpPIx2wPPOewk5vcY--28" value="&lt;font style=&quot;font-size: 14px;&quot;&gt;&lt;b&gt;...&lt;/b&gt;&lt;/font&gt;" style="text;html=1;strokeColor=none;fillColor=none;align=center;verticalAlign=middle;whiteSpace=wrap;rounded=0;" parent="cYHdGU8QMq9EJoT3NB7b-7" vertex="1">
          <mxGeometry x="40.29456040690179" y="177.00068923169619" width="78.03038398446361" height="44.681974594340375" as="geometry" />
        </mxCell>
        <mxCell id="S0qpPIx2wPPOewk5vcY--30" value="" style="rounded=1;whiteSpace=wrap;html=1;fontSize=14;strokeWidth=1;fillColor=#d5e8d4;strokeColor=#000000;" parent="cYHdGU8QMq9EJoT3NB7b-7" vertex="1">
          <mxGeometry x="10.465865116112813" y="217.20561815996987" width="62.338074007553345" height="28.511355217341002" as="geometry" />
        </mxCell>
        <mxCell id="S0qpPIx2wPPOewk5vcY--31" value="" style="rounded=1;whiteSpace=wrap;html=1;fontSize=14;strokeWidth=1;fillColor=#d5e8d4;strokeColor=#000000;" parent="cYHdGU8QMq9EJoT3NB7b-7" vertex="1">
          <mxGeometry x="85.80995719291465" y="217.20561815996987" width="62.338074007553345" height="28.511355217341002" as="geometry" />
        </mxCell>
        <mxCell id="S0qpPIx2wPPOewk5vcY--49" value="" style="rounded=1;whiteSpace=wrap;html=1;fontSize=14;strokeWidth=1;fillColor=#d5e8d4;strokeColor=#000000;" parent="cYHdGU8QMq9EJoT3NB7b-7" vertex="1">
          <mxGeometry x="10.465865116112813" y="123.9247171620978" width="62.338074007553345" height="28.511355217341002" as="geometry" />
        </mxCell>
        <mxCell id="S0qpPIx2wPPOewk5vcY--50" value="" style="rounded=1;whiteSpace=wrap;html=1;fontSize=14;strokeWidth=1;fillColor=#d5e8d4;strokeColor=#000000;" parent="cYHdGU8QMq9EJoT3NB7b-7" vertex="1">
          <mxGeometry x="85.80995719291465" y="123.9247171620978" width="62.338074007553345" height="28.511355217341002" as="geometry" />
        </mxCell>
        <mxCell id="S0qpPIx2wPPOewk5vcY--51" value="" style="rounded=1;whiteSpace=wrap;html=1;fontSize=14;strokeWidth=1;fillColor=#d5e8d4;strokeColor=#000000;" parent="cYHdGU8QMq9EJoT3NB7b-7" vertex="1">
          <mxGeometry x="10.465865116112813" y="162.83707756124645" width="62.338074007553345" height="28.511355217341002" as="geometry" />
        </mxCell>
        <mxCell id="S0qpPIx2wPPOewk5vcY--52" value="" style="rounded=1;whiteSpace=wrap;html=1;fontSize=14;strokeWidth=1;fillColor=#d5e8d4;strokeColor=#000000;" parent="cYHdGU8QMq9EJoT3NB7b-7" vertex="1">
          <mxGeometry x="85.80995719291465" y="162.83707756124645" width="62.338074007553345" height="28.511355217341002" as="geometry" />
        </mxCell>
        <mxCell id="pc9FOlnbfiyou_FgmM3e-1" value="" style="rounded=1;whiteSpace=wrap;html=1;fontSize=14;strokeWidth=1;fillColor=#d5e8d4;strokeColor=#000000;" parent="cYHdGU8QMq9EJoT3NB7b-7" vertex="1">
          <mxGeometry x="10.465865116112813" y="267.31178658244227" width="62.338074007553345" height="28.511355217341002" as="geometry" />
        </mxCell>
        <mxCell id="pc9FOlnbfiyou_FgmM3e-2" value="" style="rounded=1;whiteSpace=wrap;html=1;fontSize=14;strokeWidth=1;fillColor=#d5e8d4;strokeColor=#000000;" parent="cYHdGU8QMq9EJoT3NB7b-7" vertex="1">
          <mxGeometry x="85.80995719291465" y="267.31178658244227" width="62.338074007553345" height="28.511355217341002" as="geometry" />
        </mxCell>
        <mxCell id="S0qpPIx2wPPOewk5vcY--130" value="&lt;b style=&quot;font-family: &amp;quot;Times New Roman&amp;quot;; font-style: normal; font-variant-ligatures: normal; font-variant-caps: normal; letter-spacing: normal; orphans: 2; text-align: center; text-indent: 0px; text-transform: none; widows: 2; word-spacing: 0px; -webkit-text-stroke-width: 0px; text-decoration-thickness: initial; text-decoration-style: initial; text-decoration-color: initial;&quot;&gt;&lt;font color=&quot;#333333&quot; style=&quot;font-size: 16px;&quot;&gt;Transformers&lt;/font&gt;&lt;/b&gt;" style="text;whiteSpace=wrap;html=1;fontSize=14;fontFamily=Times New Roman;fontColor=#050505;" parent="cYHdGU8QMq9EJoT3NB7b-7" vertex="1">
          <mxGeometry x="31.49506166089178" y="240.09882952617124" width="132.68570969747918" height="54.14181491896028" as="geometry" />
        </mxCell>
        <mxCell id="S0qpPIx2wPPOewk5vcY--34" value="&lt;p&gt;&lt;br&gt;&lt;/p&gt;" style="text;html=1;strokeColor=none;fillColor=none;align=center;verticalAlign=middle;whiteSpace=wrap;rounded=0;dashed=1;fontSize=17;fontColor=#949494;opacity=50;" parent="1" vertex="1">
          <mxGeometry x="-1519.5316586378462" y="821.6467613141508" width="138.26885301456198" height="40.031469173715735" as="geometry" />
        </mxCell>
        <mxCell id="S0qpPIx2wPPOewk5vcY--37" value="" style="rounded=1;whiteSpace=wrap;html=1;fontFamily=Times New Roman;strokeColor=#050505;strokeWidth=2;fillColor=#FFFFFF;" parent="1" vertex="1">
          <mxGeometry x="-1545" y="760.7574394190544" width="357.34412340897046" height="154.69485634225276" as="geometry" />
        </mxCell>
        <mxCell id="S0qpPIx2wPPOewk5vcY--38" value="" style="rounded=1;whiteSpace=wrap;html=1;fontSize=14;strokeWidth=1;fillColor=#f8cecc;strokeColor=#050505;" parent="1" vertex="1">
          <mxGeometry x="-1269.6792069249236" y="814.1743331539304" width="68.56279343246703" height="28.366799514086757" as="geometry" />
        </mxCell>
        <mxCell id="S0qpPIx2wPPOewk5vcY--39" value="" style="rounded=1;whiteSpace=wrap;html=1;fontSize=14;strokeWidth=1;fillColor=#f8cecc;strokeColor=#050505;" parent="1" vertex="1">
          <mxGeometry x="-1353.2948872679754" y="814.1743331539304" width="68.56279343246703" height="28.366799514086757" as="geometry" />
        </mxCell>
        <mxCell id="S0qpPIx2wPPOewk5vcY--40" value="" style="rounded=1;whiteSpace=wrap;html=1;fontSize=14;strokeWidth=1;fillColor=#f8cecc;strokeColor=#050505;" parent="1" vertex="1">
          <mxGeometry x="-1269.6792069249236" y="774.0300145123374" width="68.56279343246703" height="28.366799514086757" as="geometry" />
        </mxCell>
        <mxCell id="S0qpPIx2wPPOewk5vcY--41" value="" style="edgeStyle=orthogonalEdgeStyle;rounded=0;orthogonalLoop=1;jettySize=auto;html=1;fontSize=11;fontColor=#080808;shape=flexArrow;endSize=3.086792452830189;startSize=6;fillColor=#ffe6cc;strokeColor=#000000;strokeWidth=1;endWidth=7.020291918832325;width=3.3962264150943398;" parent="1" edge="1">
          <mxGeometry relative="1" as="geometry">
            <mxPoint x="-1353.3876702016496" y="782.7297358925655" as="sourcePoint" />
            <mxPoint x="-1394.5253462611297" y="782.7297358925655" as="targetPoint" />
            <Array as="points">
              <mxPoint x="-1367.1002288881427" y="782.7297358925653" />
              <mxPoint x="-1367.1002288881427" y="782.7297358925653" />
            </Array>
          </mxGeometry>
        </mxCell>
        <mxCell id="S0qpPIx2wPPOewk5vcY--42" value="" style="rounded=1;whiteSpace=wrap;html=1;fontSize=14;strokeWidth=1;fillColor=#f8cecc;strokeColor=#050505;" parent="1" vertex="1">
          <mxGeometry x="-1353.2948872679754" y="774.0300145123374" width="68.56279343246703" height="28.366799514086757" as="geometry" />
        </mxCell>
        <mxCell id="S0qpPIx2wPPOewk5vcY--43" value="&lt;font style=&quot;font-size: 14px;&quot;&gt;&lt;b&gt;...&lt;/b&gt;&lt;/font&gt;" style="text;html=1;strokeColor=none;fillColor=none;align=center;verticalAlign=middle;whiteSpace=wrap;rounded=0;" parent="1" vertex="1">
          <mxGeometry x="-1361.5224224798712" y="781.3371140517947" width="82.27535211896043" height="42.550199271130126" as="geometry" />
        </mxCell>
        <mxCell id="S0qpPIx2wPPOewk5vcY--44" value="&lt;font style=&quot;font-size: 14px;&quot;&gt;&lt;b&gt;...&lt;/b&gt;&lt;/font&gt;" style="text;html=1;strokeColor=none;fillColor=none;align=center;verticalAlign=middle;whiteSpace=wrap;rounded=0;" parent="1" vertex="1">
          <mxGeometry x="-1273.9503317617005" y="781.3371140517947" width="82.27535211896043" height="42.550199271130126" as="geometry" />
        </mxCell>
        <mxCell id="S0qpPIx2wPPOewk5vcY--45" value="&lt;p&gt;&lt;font size=&quot;1&quot; face=&quot;Times New Roman&quot; color=&quot;#080808&quot; style=&quot;&quot;&gt;&lt;b style=&quot;font-size: 14px;&quot;&gt;LayerN Prompts&lt;/b&gt;&lt;/font&gt;&lt;/p&gt;" style="text;html=1;strokeColor=none;fillColor=none;align=center;verticalAlign=middle;whiteSpace=wrap;rounded=0;dashed=1;fontSize=17;fontColor=#949494;opacity=50;" parent="1" vertex="1">
          <mxGeometry x="-1543.6596717759082" y="765.6330207593338" width="155.95926922061105" height="42.55648551582603" as="geometry" />
        </mxCell>
        <mxCell id="S0qpPIx2wPPOewk5vcY--46" value="&lt;p&gt;&lt;font size=&quot;1&quot; face=&quot;Times New Roman&quot; color=&quot;#080808&quot; style=&quot;&quot;&gt;&lt;b style=&quot;font-size: 14px;&quot;&gt;Layer1 Prompts&lt;/b&gt;&lt;/font&gt;&lt;/p&gt;" style="text;html=1;strokeColor=none;fillColor=none;align=center;verticalAlign=middle;whiteSpace=wrap;rounded=0;dashed=1;fontSize=17;fontColor=#949494;opacity=50;" parent="1" vertex="1">
          <mxGeometry x="-1543.6596717759082" y="807.0885685531613" width="155.95926922061105" height="42.55648551582603" as="geometry" />
        </mxCell>
        <mxCell id="S0qpPIx2wPPOewk5vcY--47" value="" style="edgeStyle=orthogonalEdgeStyle;rounded=0;orthogonalLoop=1;jettySize=auto;html=1;fontSize=11;fontColor=#080808;shape=flexArrow;endSize=3.086792452830189;startSize=6;fillColor=#ffe6cc;strokeColor=#000000;strokeWidth=1;endWidth=7.020291918832325;width=3.3962264150943398;" parent="1" edge="1">
          <mxGeometry relative="1" as="geometry">
            <mxPoint x="-1353.3876702016496" y="820.4681739046214" as="sourcePoint" />
            <mxPoint x="-1394.5253462611297" y="820.4681739046214" as="targetPoint" />
            <Array as="points">
              <mxPoint x="-1367.1002288881427" y="820.4681739046215" />
              <mxPoint x="-1367.1002288881427" y="820.4681739046215" />
            </Array>
          </mxGeometry>
        </mxCell>
        <mxCell id="S0qpPIx2wPPOewk5vcY--48" value="&lt;font style=&quot;font-size: 14px;&quot;&gt;&lt;b&gt;...&lt;/b&gt;&lt;/font&gt;" style="text;html=1;strokeColor=none;fillColor=none;align=center;verticalAlign=middle;whiteSpace=wrap;rounded=0;" parent="1" vertex="1">
          <mxGeometry x="-1509.4015627820938" y="781.3371140517947" width="82.27535211896043" height="42.550199271130126" as="geometry" />
        </mxCell>
        <mxCell id="S0qpPIx2wPPOewk5vcY--77" value="" style="endArrow=classic;dashed=1;html=1;rounded=0;fontFamily=Times New Roman;fontSize=17;fontColor=#050505;strokeColor=#050505;targetPerimeterSpacing=2;jumpStyle=arc;sketch=0;shadow=0;startArrow=none;startFill=0;endFill=1;strokeWidth=2;" parent="1" edge="1">
          <mxGeometry width="50" height="50" relative="1" as="geometry">
            <mxPoint x="-792.5278354991079" y="560" as="sourcePoint" />
            <mxPoint x="-1284.418420113241" y="848.4128256513026" as="targetPoint" />
            <Array as="points">
              <mxPoint x="-465" y="560" />
              <mxPoint x="-465" y="1160" />
              <mxPoint x="-911.6288665896926" y="1160" />
              <mxPoint x="-1284.8120973401913" y="1160" />
            </Array>
          </mxGeometry>
        </mxCell>
        <mxCell id="S0qpPIx2wPPOewk5vcY--78" value="&lt;font size=&quot;1&quot; style=&quot;&quot;&gt;&lt;b style=&quot;font-size: 18px;&quot;&gt;Reparameterization&lt;/b&gt;&lt;/font&gt;" style="rounded=1;whiteSpace=wrap;html=1;fontFamily=Times New Roman;fontSize=17;fontColor=#050505;strokeColor=#050505;strokeWidth=2;fillColor=#FFFFFF;dashed=1;" parent="1" vertex="1">
          <mxGeometry x="-853.2465627058439" y="1123.172745490982" width="267.67745961393473" height="63.82725450901804" as="geometry" />
        </mxCell>
        <mxCell id="cYHdGU8QMq9EJoT3NB7b-16" value="" style="endArrow=none;dashed=1;html=1;rounded=0;fontFamily=Times New Roman;fontSize=17;fontColor=#050505;strokeColor=#050505;jumpStyle=arc;sourcePerimeterSpacing=2;sketch=0;shadow=0;startArrow=none;startFill=0;endFill=1;strokeWidth=2;" parent="1" edge="1">
          <mxGeometry width="50" height="50" relative="1" as="geometry">
            <mxPoint x="-1239.1567020888003" y="600" as="sourcePoint" />
            <mxPoint x="-871.9285228928311" y="560" as="targetPoint" />
            <Array as="points">
              <mxPoint x="-1239.1567020888006" y="560" />
              <mxPoint x="-951.3292102865541" y="560" />
            </Array>
          </mxGeometry>
        </mxCell>
        <mxCell id="S0qpPIx2wPPOewk5vcY--11" value="&lt;b&gt;&lt;font style=&quot;font-size: 20px; background-color: rgb(255, 255, 255);&quot;&gt;Optimization&lt;/font&gt;&lt;/b&gt;" style="text;html=1;strokeColor=none;fillColor=none;align=center;verticalAlign=middle;whiteSpace=wrap;rounded=0;glass=1;labelBackgroundColor=none;fontFamily=Times New Roman;fontSize=16;fontColor=#050505;" parent="1" vertex="1">
          <mxGeometry x="-871.925743681128" y="530" width="75.42007918048294" height="44.67059087025053" as="geometry" />
        </mxCell>
        <mxCell id="S0qpPIx2wPPOewk5vcY--12" value="" style="rounded=1;whiteSpace=wrap;html=1;strokeWidth=2;" parent="1" vertex="1">
          <mxGeometry x="-1172.396540805219" y="760.07" width="418.5931103329351" height="165.28405462413846" as="geometry" />
        </mxCell>
        <mxCell id="S0qpPIx2wPPOewk5vcY--13" value="" style="shape=trapezoid;perimeter=trapezoidPerimeter;whiteSpace=wrap;html=1;fixedSize=1;fillColor=#e1d5e7;strokeColor=#050505;" parent="1" vertex="1">
          <mxGeometry x="-1178.732778982177" y="935.047457155796" width="116.99104018585903" height="65.04150906290421" as="geometry" />
        </mxCell>
        <mxCell id="S0qpPIx2wPPOewk5vcY--14" value="" style="shape=trapezoid;perimeter=trapezoidPerimeter;whiteSpace=wrap;html=1;fixedSize=1;fillColor=#e1d5e7;strokeColor=#050505;" parent="1" vertex="1">
          <mxGeometry x="-1101.0979144877404" y="935.047457155796" width="118.38157209347185" height="65.04150906290421" as="geometry" />
        </mxCell>
        <mxCell id="S0qpPIx2wPPOewk5vcY--15" value="" style="shape=trapezoid;perimeter=trapezoidPerimeter;whiteSpace=wrap;html=1;fixedSize=1;fillColor=#e1d5e7;strokeColor=#050505;" parent="1" vertex="1">
          <mxGeometry x="-1026.5539359352997" y="935.047457155796" width="131.32642067671298" height="65.04150906290421" as="geometry" />
        </mxCell>
        <mxCell id="S0qpPIx2wPPOewk5vcY--16" value="" style="shape=trapezoid;perimeter=trapezoidPerimeter;whiteSpace=wrap;html=1;fixedSize=1;fillColor=#e1d5e7;strokeColor=#050505;" parent="1" vertex="1">
          <mxGeometry x="-941.8632861173486" y="935.047457155796" width="127.12615419289284" height="65.04150906290421" as="geometry" />
        </mxCell>
        <mxCell id="S0qpPIx2wPPOewk5vcY--17" value="" style="shape=trapezoid;perimeter=trapezoidPerimeter;whiteSpace=wrap;html=1;fixedSize=1;fillColor=#e1d5e7;strokeColor=#050505;" parent="1" vertex="1">
          <mxGeometry x="-859.9180199900628" y="935.0509452810008" width="107.09052818781655" height="65.04035136059152" as="geometry" />
        </mxCell>
        <mxCell id="S0qpPIx2wPPOewk5vcY--18" value="&lt;b&gt;CNN&lt;/b&gt;" style="text;html=1;strokeColor=none;fillColor=none;align=center;verticalAlign=middle;whiteSpace=wrap;rounded=0;dashed=1;fontSize=14;opacity=50;" parent="1" vertex="1">
          <mxGeometry x="-1005.4194161426389" y="949.8655463529253" width="84.62498805891198" height="44.45556241359515" as="geometry" />
        </mxCell>
        <mxCell id="S0qpPIx2wPPOewk5vcY--33" value="" style="shape=image;verticalLabelPosition=bottom;labelBackgroundColor=default;verticalAlign=top;aspect=fixed;imageAspect=0;image=data:image/png,iVBORw0KGgoAAAANSUhEUgAAA1UAAABkCAMAAAEu6Nr3AAAAAXNSR0IArs4c6QAAAARnQU1BAACxjwv8YQUAAAMAUExURQAAAP////f39+bv7+bm5ggAANbW3tbW1sXOzggIEL3FxRkZEL29vSEhIbW1ra2trSkpKTExMZyUnKWlnDoxOlpjWkpCQoSEjIyUlHt7ezpCOoR7hEpSUmtrY3Nzc1paWpwZWhmthJwQrZwZEBmMGb21cxBzjL2EcxBCjBlCUmNCGVoQ797mpVpz7961QloQlBlz75y1QhkQ75zmpRkQlFpC796EQhlC75yEQlrm72veUt575t5Se5yt71rmpd4x5t5SMVqtUhnm75x75pxSexnmpZwx5pxSMRmtUineUlqt7957rd4Ze1qtpd4xrd4ZMVqtGRmt75x7rZwZexmtpZwxrZwZMRmtGWveGSneGUreUgjeUkreGQjeGe+1c0JzjL3m1u+Ec0JCjJTm1hBCGea9rRljUmNjGeacrWsQKUoQKea95jpSGRBjGeac5sWt5u/mQq3mQu/mEK3mEGsQve/mc2tzve+1EGsQYylzva21ECkQva3mcykQY2tCve+EEClCva2EEM7mQozmQs7mEIzmEEoQvc7mc0pzvc61EEoQYwhzvYy1EAgQvYzmcwgQY0pCvc6EEAhCvYyEEJS9c2tajGvmzu9a5u9SWpy9zmvmhO8Q5u9SEGuMUinmzq1a5q1SWinmhK0Q5q1SECmMUmutzu9are8ZWmuthO8Qre8ZEGuMGSmtzq1arZScc2s6jErmzs5a5s5SWpyczkrmhM4Q5s5SEEqMUgjmzoxa5oxSWgjmhIwQ5oxSEAiMUkqtzs5arc4ZWkqthM4Qrc4ZEEqMGQitzoxarRAIMWNjQmt7lJR7a2tCWmMQADpaUtbm9ykQAJzm9+/3zjEQOmM6Qoy1nO/ezr2lpTEQGRAhOpS9ra29nNbvxZScrUo6Wtbv5joxUr3Fpb2lva2UnMXO5joxEAghEGtaWpR7hGN7e5x7jBkIEO/e72N7c62crQAZAP/m9zpCWvfe5jEpGQgZAPfe99bW5gghIff377XFrdbWxeb37+bW5gAACP//9wAAAOA9nj8AAAEAdFJOU////////////////////////////////////////////////////////////////////////////////////////////////////////////////////////////////////////////////////////////////////////////////////////////////////////////////////////////////////////////////////////////////////////////////////////////////////////////////////////////////////////////////////wBT9wclAAAACXBIWXMAABcRAAAXEQHKJvM/AABiN0lEQVR4Xu39W3PbuNY2ihIBg4IFkBAoiSDUgni9/9v+odp3+2Z/vlluVcVZccVJdWg51a6Cllj7GSAly4mTTtLpeXjfPHN2LFEkcRhnHAYy9iMQ9A9nzLFdly4AL8a/R6TvuOcRXy6ry/EPp7tl+s4FN/izw3955fBBcvZxW4roWaY7yf6Ib7csZ0Zbuj8XHW6PctfTswNOZdE7dEVvYwZvz/M/KzZhkx2PrN7LnsfGXdUVq5zk1eus5VxWqz4rWxmyPPOsZYV5Z9DQUGdtvOuuPNcHfRMN1XjEUJZglUcDNlnWlnVfrWqZBe/dvFczm5VZ9+bhIWvbVZa5TW2bg8+y8FDi5gyf6E+mLMOH1aou6iLbpKsLvO1CFR5dMGIoa2ltFjK6PaszW2QH+pSpbJPN6YpJX59AZR/HTyNs+rdI/z5FKoGAT6q4oUsXKO2fwVgUlTVe+QdRncpSQ68rdNY/g6GkI71MVWT1PLUQhAZRgZCtMk1kaF++Txc+AW48x0Cp56qbSiAMn8CDFcTF1Z4Zp6t2nmfOOFmzqlpYdsfwJr9agKwmu2t5C15ZVxP0TdZk01SAoop+tCaIUGS2ye6yAhfabBnaJPcJj6UCmvdUrGEN6+JeQBR4J0oWWdhBTNytnfZW46IwTnRMS/ZR3u6Jfx27ZvNQcDzoZePYvPea8aybsnI/vht4UtYIPeigTzFh3OM3wlEZWHw3gtUR9WmZH3/Yjn8jKi4+k+VvQhz/nsEMtbrC21lJn76K7yiLcKbdRtTU60cIfD77+lXdCyIMH8Qu3RXZbs/Q42gS9KIR6K8tg25Myl32e+FzJVCAgNLdsZjP8LjhaKu4znnkTLuzLjyVNVQYVE1aPQ+m6PgOStsLumD3vVyzwmU1qztvMtd7zkMnFzZ8LJWeZSitgbrPbvrffOa2vcziCpowO8zKz/gwOIHSKnuVycBe85i9zLxaMGJnXrCgfPgwCEuVzSD14HVZQyzooqPvzItNErgd/WPA+NC7pEwz2IAjhrJCXWere0iEz6a1sXg44YFEuYFMP2JUrvf0z/E2YHr+5ROkEggZk3mbyn/y7M9EGItCWevx0j+IU1mT7XT+D7VowIlgqcxtu2xdq3gGPTZdQtERYClhN7PsLQzzIwa9/KmhzJIFJIy/nyOVQxg+cX8FCenLcpLBVZHxoq0tdy27WFneHdikNUZlxHRRfmiyda13qvMZa+hVLjN1xm6FqojgW4V/KgONfGizVOurVALhsVQgz9lCkCrqNUkvZ+0azg7EUe77KuhFlK8hgpXucxK6G9atrIWjEXkF+QrQA6VhvAgO4n7fqXLNbFashlcTnpT1GfCSEwybMWh3KBdyuQAUZ652kdQAKZmjOhIlfZqxJa6Y/uQ+Al8v6xzdZ97mF5Be/7ni/J6yznBe2QFJEQ3aKLWvy/EHXma6kvAChDiqqy3ZhRd1xyIUbrGFQQTVUqeBbngBh9aFKdWkWfEafd2PRXLOO/o4vjd/1H+f4GvNIrK0+A/vmeDPvmNXLHLXp29U7Rg73ZPd5VDvXTejW/uory5Z3r7V7JZVUNxgrj5yKSp4yPTOTsC9dpxvMxPrysh3M/0BjnaWX75h0KqMraRmBfxqONINrvCr6lBrWHkwRoy1FlxzGaJgptY1eCN146c4axZ+9yLqsSccU7aITQHWR8X+gNPhdyhIxaws3YJdO/Zi6RtdeN/2cPpYtw/FTGoJz/yND0EVUNKyCKxVbS9e2htImiqkeeP5pGkfNvz/kfCAoMehiWfQLCZ7A4PC7tA/WV1zeJFFl62V5gtV4C6bzUTGLh10S5CqXcK10i1Mjlcwn2eicsRZs+Qr7X34WDfGo98h7kXmVGbMx9aJOmbeqsFhz+o2W70pcoNwIakNEQ6ZRk2yQW+9hCF6Rx/wN2vtue0IeMNFMnKWdN9onXDDED1ky+ye/TF8JMB0Jh+ZYEfriafGmx8xNuAM6ZJnoGlVQJtQEaTNXpxel3BWsycY6vWlX/91SE05B11x44//xbBDa074H9Ks0aE9gZrV3zEpmCvq6QZeGIQdVH073P4XGIXjU1fgX41iaMsZzthSzlir121nruBhMPgyKqummdPFTcFu3Et4KyREi8y5pfIWr8pU7TPl38kK/cBpxEGl/+OuwdOEM7ugQQSfWWp5nV3Os4u5pJ/eQpJJaxDozxCd6mzDfsNf3H3AZTjGzVFwcdMYrJqPFFgOD9M/V/OxAWc4axaA0JEncwWtLgXayf5vKcmfmMFArirmfalNx0vTOdguFYPwVxzW6C35QQ8VfCiWI7BYh/UmUx+yfqJ6X5ueHcxMxt9izYzK2VZAZzMus48aXRCypYCO19DWUPD0omy+ylWQoVuFttuvb5pCQaGyLstLfZ/5OVPeZYWBrp6gw/gmVfcTPG3W55CDb0K8i//ywYcg4AO5bTvWk/dExo58AnzO2e2sF7cztkKI9jbdCP9D8o6aPngoOVrK2AeXr8oZugq+H+MK1j2ZSPa7LFmbvAqIBvsTcRh30NQov2cx4AfF9gGVcZ5da7rlGfxVs0ZQNVL7niKNxX0GeAnUBwgyn3kkITEEXJAdKjW6CT75XvSZnP4nL04jEiPAOYzM7/jmxx+e4hub9b0YiyPfb0Qa6fwUTtDV3diI8Yb0B9U/PdGN3uaI4er42/P4oVadvzEVmDiGcGyGxC1wdIl1R4AyR793cOvpt/aaBhViKJkBzdASej4SQcCV/MVQTifEhIpESXmHRwfRp6GZ/mlzH/FXrXpsAH2iwQFw1nixp7/kyHYnbxMVf4GfhXndcx0jNA4Bv+aXlXk/vETu0/2B7XkduN6xWHu2DFzgTdRU6AIEU70QPdVfM1MZw9FcuaeOQnt434u+6R2XO0OjNZ/jy61CWIAmDB1DtdmhYwLvuj8iFQHAde63Ua/xK41npdEgySOn8Zzav4iLqqwQeODqFu2GPTA0nMMiyEAyZ3Mu1DS2qJy6ZwUczIbt4a93mUNIGXyMkQa0KhZq6z1e4wQ3scoRNOzFzT70xb66XOhnnNzPW3UiqTMx9vDaidaJBvG9Zkry101V7dKY4kRtc3l9O+3Y7k/DxcwstqKMJpcNR+TOzEFZhzqxy3zB0QCVXe1YmQtd7nyUmmeXAtZLZ0uo+YK/zGQTmIADpLO2Ztm01Vfay5wHDu8dfj/jSx0r98Y5aZS8iLbP+qnPKmj9ocLneNqqK4RWI0mL0OiJtMLk1BtGT/TE7DLT6FAvr8EEMx6yXZQwlHm3R0N1a+tKu1krWhvhI4sAqxwKVsQ2V05EmEwfu8LoWWWy6jrwDMTLaBjBonFb2OKpZRHVCTDgMEd1qCt7H2eZQCCgEBxss9aha6ZWF9krWO4d2nqf/b5pSQw/wZNWTTJjt6KLYOyYLYMydSHsXQapX64a3TiXHZRR2UvlDC+EyvgH8hVE19tFdJla1hV8AGezcJ9l+EWpacayjd29y0KaTwCB6qpZI/QoHiLCltFhQBD2Kn1YGVSHHIoerpClcETXyVW5yFa35mU9+CN41RS9gS+ITUDIUYOe47FVnZUWXeC8nM4lg7G3mXtAgHbI4Cd+RIRXv6MCySFWoVU0HijS+AtkqbASIR08qGEkiP4ZHWe4ixt6LFUIUeJmuUFdDtlLCnlGjwge09i+JosU4ZGrgR9x/TS5cgjvjrfDZRo/DYB5+BRntMquCxpnXOqs0B29l8qi5yWVWaQrY/nUBHyPqe5NeXXIaJQpy36nfwYgdCQcg75Uj2Ks/BeB35OneJe+PcEpevwM7exsnH/A0CrBJuA5hMAE9I9bDx7nOZ70zwDyQvHv6L7/HHxe8F+hOM40PYJadTurRAZ5GfFTK/mvwWh/TqBWjT/9N4Oszxn+h7Qqs098jP8ZrSo+scTUqqCvK1Jpo2SdT8H8l+BTZ5Ba1cNrhNc86ECl0L4lTOkjntF+AMyOSjpQ3dGY278PNvvMZ6JWDchDNc0KNdE6e4gsjQtCx5NClKldo61JpqSFdcKPEm4cDJeoCnuVGkZ2bMQ4T/YUZ0OZzwLOSzKLQy/h3+e6K1nGM1SnSbMTHlu1v9rrqS9YF2uXw7dQCzXbZB4uCVvUWV1A9dNw6EzBhQjLdZGrTCwlKDbhr2yIDTrtzn1EL6Ambwb3ABirVSUnoeFwS/xgOS7x32hD0IOjlTJZ4DT+C+OOBxf4cLTbH/GhGF6G258Yn8knChB4bFWKEliBwKFEDCKz9qq5cg+i9goxlBIrfbOoMl/r1aKNTdtX7PaCB+lb+IG6nnXCqrevzardgGDvQFC4X2BMq+9bK2wmJLluOTusEJ6g/Xaaoz5Ed5W9A8Hh3XqVLWfZNvmBUGD39sEFKx21DezuQpHVqYkqLabJ7tAydGmd3X9qrICzVgGcHUeittbnE7210WkaHl2wsvz/aYZwQZaxilWAfBrHGikuP3KmWwp/guDSxyauJvBSL8RVVrxd+v2dvOn9jIs6rFTHrNH7ySJcxbrL7mv47K1VLZwktIXbdj1RjN1l9iXbPPjKS7fn+g2D7CqvJ23hKltMNwgBVJttZMhaNCyoz/nv01adwcgeauRux2nIhP3G4gShXqR4lb8XOYWIQjIhGJ8jNKeosaxesBzxYV5z3yPyEyrkTcfesmvmWNettYFjYyZ4G5evWejnEw7feGLtTD5YptrdumF6id65mP/et04jCqYxHcNc5q3WzDVGrN+Kdsa0M7bFZW4DIoQ/hvo+wRdbNYziHFUmolLEkGw/XB0BpxK/e8bekxJCI9NT3QLcWTDEe55pen7CEOj3abRxfCFub9gaHZBZsfBCLhesLbmbpOEpphAL92j8cVSCZ7PQCVaKiGp0fkfjG6VnzZzNRUbrJT7HF1v1FHh0KOJzfKZWPdpB07eiovIJVPC5X43PkhlUe7FgDfxqT+tUeMXZjmSkoNGOs7r21YS+8x4MQUOu6TfDZng9f3N+4yO+sVWgwRMyfQ0lqkh93iEqH648C/rNGTbpwZ7U+g51z6kQGsp8Ahrk/BRpTpyGdJ7FN7bq+9B9tTlnqEalTO3ojwp6JPAZvvy2L/zyj7TqB3E22/t8bXvRDT/Q0Nf+PTHE58Adke8/e8GZ/hcDhXmIl/iTp/Ec0bs0jy5pCSu9IrHm+BZO65wGpDJ7jp4/zePj3VzwuEvDVgOG505Ct0+DcuPLBqL1glTH9+Fv0uqzLjkDH1o9/pM/CcMfe65POg3oev7Y2JELk34gYdsRkcQLHbfpyYneMbFNwzCnGgzSyPlky+SE74gMR+xp4I/UHVUJaskm1Vfdlb7nuZx2+QshLm/ENS46P4PlYf2E3rtLahu1CbykqjTvueFQ3Z0woM5QR44KxTiR7aQrodKGBxIZeOR9fE9jwl2kFSvQNvQz2cZLto+5Zt0X1hh+AT9Gq0HJAs1jpwNjv6FDaLB6MkON0McT3YOv0nTQCRKsjws7wXvJb9Mljm4b3gbajD0NT4Bx0cFQ0eIOuXeubF5AJV6ZkklZEQF3+7Rkcd/TGhZYyXhtVsELndZTDcTfwZT2kZv9JarVw03I9pLt8kVhaimEKbTuxMQWsSaXKqsZ16a5ItYyZujKkAmyLmxVXbp9BeqIm22Mg1jfou9LN/NFWDdav8YDHesNmLEXOudvLyNq30Ue833kTSl6su+yvsGvC7lzUY8k/xb8Ja3G/n8E3D60bViYE9uhd8fpjuRK4GrO+GtYY9vtDOc7e93rPh+bDRajO6LXOegYr2NX5r+nx/DKpOh7pnMZyBLnXPex0zS87ko4RkZ/XNq2L6NQy5q1oaG1L9cNGg8b3ksNzphsZbuY2swkT5XFct/t8YZXjF8ZL+Cp9rsuFplohBbLzH10E5kdFo6XEe41PHsJZztuZ1X2G6q5C4tUaW4zDYcPXo/K6tchl2xSTKqZz0lZrG8jc7ax2buXdVWXkETeVWEvOxGrUqt1FeWsm/gIh1oUFh5Wzfqgik4HZSaquuLPjT0/j6/QCnoG1d3RHOkZmpo1rV5JctMlooxkQeB8EmZQ3O+hgkzkYHZwo14IET94uYrB6T/g+uoONOOs8krvLkWcrNa6uKJJEFDGiaJi+QtErNWiWO1K8KLpzDWo6sqb4HbSuewiq/ncL95lan+/dO6eOKLgvoHY3r+RNTeC4tgsW1U1bJqui90kbo00cufv68tlyT3nCBHCajbTtDqpaBHIFoWpaHB1Izmt7V83mzqjpVyx/UDSxKqLLNTesh6h3ztfw7/2mfHtNDAwx3oz3dsPqws8+KZ+WUTZi92F6htu9OJ2haCknQQuC99kNaqmfFXkHQIpUxYZIru15xYhAM0B/DWeoxUcZEIoqq2uq35YcHy0B6DA7wgN6kxPgrcfRInAQ9qkcdjtIjZw7XT7Rw4H7yIrgmqrMrNOVQ9+VVxG4V/ULdv1yyJb5t4bqdSKAltoxN2+aDPPRFf9YW3xUM/DtQ6F8Urdy7c2u2hLG2hdpxIUaWdqpmi0P2eIJNF9ndAorpBFNdAqq5U0/LePL9vfS1FpF2qUsni5ELUhWj2orGrHMJ2wSbTKbgTF5O8UVUkLFudZ2saBImh8xhCtaE3WUqjMtRSyxs6vMgWhoiplaoqbXJR4V2yL0GYH3FPgIXd7QHhrafje2sy/pYEQi0dQ2hxSnmn9uF3kK3iOVr0A98Wwzpz3qpZVGaGzxDCzdYUqqWyFWlWVnRbZBOreFmBDhEbBFa+VctosF+sCjUioEdDXWfhwow4BxAU7gR64rrZ1do1WvaSbJjvedIXNWq45LVDLDsXhgdpWpPEdWjtdz7Nh8duwrUUNXR0aGvXZFLbaUEcSjdIfwPgcv00z725cWshCFKg3WZUGmmhV3BloAwT6b5zISdg0qDlpUpqjw6PZPc3B0eoYGg4KaQ4IzIYvCiQ5oli8vQm4RA+cYIdajVV792Q9ES0dV9X9IA9fx7M60H+8NQ5sHmoUu1Stjz4rpi0pumHoiKZdvH+HOrZVmu2pd8HLC/vhGupnXhbjNE9CGl2itT/Z73bzAbS55mn0TdjMjUKQXWraLqJQaZ0/9mF68jOMw1EDLOmekeAJjyXb1VplLzfUzY8dh08nYj7BcHV424hEuYXkp+HAgchpECibpqvqvKED1HFU7BxfnqYaED6dKHgWJ1qBsMf4Zg8GrwaWTh2nbEXc80EjcLmlCwPOp85slR3qYzc8re3A74QnvJYY+9jv7Wo5TTN6m3D/2Jdn7PolPGHRp1BvnvT892Os+Gz4848COiMMhudrONKKF5yVNwgTOfMLMPiT/lYDWVT53NTmDwP9/DyP/+/Ek61Mz2KkFVydYjlNJvLiURA+xTcw+i/8OFKY8RWMtDqq4l/4t+JdMYaoz+IXrf6TkNy3L+KoA6EvFyHZj6cewC/86/BXAxgjrRBZM6YDk44LD5e/eOJEqFHszMWToORn4n+3l0GtX6fFs1/DSCtEfIx1PA3KzkCt2oU3KQJFMD8PtkzeewlyprnnhHHpwSCGGwjml33EkcLHPVnD6sW3ePIYe/rCLB0F2e1D2tr1NXw7Ve+OvtAPMsLgC3/h4We2xP44brL52c7TL+FEqzPstWuFCG3m2lC87MTeaVfc1IoGaNGVqDwRqEnCtgoZrYatuSr2iMjmcPcP57uAwS8URNZZYQ+trwu1yXRJ4xaZqA8+jezgZaXJEQsX2SrX/G7snPvPYuGP6ZcnV4tTDEVVQqQxsA6hCHn6UmRvhqEOAt7wbIQ9vDoNIpxQUdzfSlr3O+D0JO6aEyEVjRV8iscanHCovx7q2cvPlzg+g+do1cdSdoy11U76gkaqtIy+GkLlSmXuPvPt4uba1Fpl2ix1XWRv2Y1jvlK6ssVaP6yywgcIXqsKDxpUmZ77q6m7amtpaVQUMbDdrlo3UVO70Vkh8y5qENqzXW+o/cu7Nx7xuL2z1CfjzqZBMQ+coBwF0srd4fcpWCBQWoC6rM3QVehmKWmMtGh9cy3rUcIeeFbHoX/DIDUjQiLn5pKketzHOWd41+80gzESsOXU48WGdqZnoUX82ugrj88nEcOHNqTBK5c2cB7B0WsQ8zTqhqrSnxT/oH5TetjIYTz1L/AcrUY0iKSlpZFmfDjuvI5/ZHr9h5TGmViyaSZMGyuhaB8Ri8ay3nhW1q6Ysfch+2iaYLT3XHPfyOtmFwKf0ZuMmsp+4aVcaO/4YUUxu1arKk1FMa/mXre5pCQQl6YtAvrVhoepvyGOFqmxStay+NjyXVsr52hXeZtt1n0jtL26Ly5kpsBarth4aZiMJbrdqnUWWM07CLN6l10PNvii3uClVicJb3c06LWI6HQrLTPhIo2zE5vczzO5Vxf3tKduwevsau3tK875LKh5vqBtwCQ+9ZuydLT4WoZmsU6rw6EmCiK3Anlxj6oqRvV/d4VHUIW2LB5TMvwFvkIrGl/nN+OXI3jphNt2YlgEMa+FkEIyN7gwswX+mbBJKF9DX5Z+JyeV5jnNgE+00Jo15TC1ZjblloVSvK5o1rG4JYnV0o3pU6q6KnPaTeLwT1/aXLer3TpUAroUmjig5W7VV9Lf42XNTejkGsrA1TSfmL9ue1c5MQ9gHrNQeod7eI5+ny0ni5zd9L1Q2bowUm/A1xe32pLs9bRaUEXq1Isopqs7zzo28UUa+FlDOdtWMba5dzfC5ZwZ36EQtme9XNuGGWiWdmqLUAVi2reZ7ZtcivbOqsrYBjcqr+vKQyKXsmdBZR9FhOTNIJ/5Zpyk+Gt8hVbPg9PWqiN8hS+U2GpwYWg+DhwuS0FrDWLX891xjLEfP4wzypdwehy+UNP6YUZP5MP8JYTZmDSUmaaOGXvNWe33s0b0l5nXCO7zuY3gRWFWKKUXICiV21BsEvnW7TuaDE2PdkwcKyBSJzOiapvx0O+EzYwCk9VtGyKLmbVL3FVkvuPRUUt6PfNpIkjUUPowAmxe5QNTiryfDXN2/BUqvYcxKCsfpKDFZ6xxMqUqcE60cKtpdvqN7HMhCteQDLl5ARGw1uhsVYqrobHfgO+m1VMMk1pHUD4OIG12+/S3p0hNGj4mFxTo9ykTA31i+yeLM1j3toJg4oNvaO6ZB40eYHyS9CmBikoJEvBeuf/ClsrUt7Q4oCpYtWf7UOh6krP15Qw1EX+uOtr85WzOeGxIGtlODzVjreKpsoHRaoQBlJ+CkArqfluwshKRpYUEEqSkFBc7WoGIZqIx08Q6ly+2ZP4bscDrZjsu4a4dd7h9A/4mrZ5CDF18ZOWvgFpIS1G+EZVmmshLGZMA857mnSG06ds5vsIfg9SmvgxptUH00qEehtPKxpyXfXo5GJ/LWVqD9D4lYqFr00F1f9lZ45o4dD8uvhmuEdDGRExyqCB/bE/vKTvaEUw78yyxaPrpW/BTafV9GPr9mxBzJt/jr0j9jQamjaLPyM7XcOpCPi5qvYX6BEVOnZVkhgR2m1yKxwLAKglfUVaUf+sZHJ94IjyP9R7l9hvxb6TVvw9jF83iM51PhiplWDrDURd+Fd13ss734z+JVme643k8vWGUsU9ASujrC36ZHLo+Og6R4kloXvAkY4948oJHqRjKTLu4z++gRYBfKfNZk/Tl27+A/yRSPTLzF5pBK6ASUhj2/NIf0kT68845M6Fi1GilJ7UanSFHBu4a3ZGcXFD7xUCT8SG4DMMHNixg7Hao6tGWwQpx2Yst7Vd/WvG0wouQHqI1n8CYJIvztBz8e/AvI9WTRpzhmEENeOTr8ebht8cnY56nfAPJgdw/b+eJ3hWLyZwdgc+P6Q/SlgB84Y0nb2XiKt7t2U4GWreYFigSHRLbHHM8SLyPEiN0KY8IGCa+7lg8Wbk+ajjwwx6T4UIqKydSJQu4pVv3w7rjtD0F7yLKPiYU/hb8TVIN5T6PU98MFU8fj9gOF/EP5VdI4GekGnd+DJEYyhhueh9lFOnJ8IL3+dNFWuPy9U5370GqyRgFDcDDXFDXpvfJljL3MeEXM0iGdrRiqy9NgEB1IsAJRD2SB8Nf74aIwOuUUU6LSNcF20ad92OQiap2ctatTZT5dlQMAz+JPP8T9cZtKcUEfx+pFVtUzIBKueS93J5x0F/ix0h1fP+Lr/jcPS0/JUaKnOrzqC8IciAyqr7bvRrYM2e0fHnAuIZ8WJqPf7ocV/pd1PqSVkszSlwHUkGF5Ec1k9r8vucVvy1drtOWgmM90fc7Ebd82CWklaOIpgztLeIx06yJERrXUvJok6FDTL9LK4R7PZCDL31axnwd3Wu8CupQ6nw/zN7m0JudcbH20cDcDdwGuqK1ksZz4MdDcjkkDGFBXoIZ0BIf5U5UE1C8P8b+34AfI1WK9oCYosMThqvE38S+lL+HOtCliHHgtyM0j5T9hcaQxGx4LGd/nDZ2DF3Ud5J0ieR7IdL637IxXnayZ1aIPnoqbzvEkaAcPYIecfwmBOFo59tocV70M9B7p9Fx+M5ZlfluQkkIa+9E73wwe9mFuqVMUDOa7Gt45ai6oqJkMoy9VjeGBMJN6hKSNWG59rshtyXbBjCkC3rarteiAi0IUlKTdRSvKk3B1CSPfc6llg0kUO+7dWtEDFXULt8hEvlG/Aip+FFBserpINbIUyic1E8rcxgXxJxbkSP6P5Mq0ZnXSdauoZciJXkEInOjjgeX06Uu7yKo9OLVdifjlWD7WC19jT7v4sMkdtWCui+XJfUqSCU4fwETFcSyrt0ikiXrJkmeabhBSBNNGhVkLgtdKfumqP2NYItlCJ3p282clpT7LGvAW/OaGhDXAzl0VjsiggvF4lpelkyUtTC3VC4Tqx3bh1ZnWX0f03L3vhOm7NFDZiKrxWX+iu+i1F2+k2bhQWW95ytbibjysqzznR6o+w34EVJVtM8ofXLr9Gf8dvTJ0EwQrd+UUsJVCostjLShtgMpMZBgzujdHsSR4jUamHhXQi8MtiTXBuSjLR/oaskvpSyhYthe32zqQgvDXbbSol7leHDr/ST5DLso5FZ2oq2m0yKsYtp1koRB0EhUND5WNPi1BTkCrwxzh+lNoTubtTU37IYy0aRZmsB8X0ypRboePJcqq71AjdzhnfKmhKWr6th4aDPO4kryuLRQnCrD/RXbd732r97HLavMZbBOzvhEa7erLmWlQrdtDJeFgibdBO1UHj/h9q/gL0glznaCDYAG8lpek0Ji4u0wjN+NnDG0rDN7/gp/MmMmIFVbi1gKF0lDcf5n6oOu+O1yl09YW8pJGVxykzQLa/gMu06KyinRCYiDFsK8n0ldORDkxbVVSukYaLJBmwcbcX++DEaUMOhXbTRS9/FGZS+zYKEeQR8fYVEkSCWkr43/Q0bYhiUI7U3nD2qeaVZkcyubrs0O2TVNqGTzro33ac2DsWnMlofM1nFZUu5IVRsHS1cvtfdQwLyT1sU/1LCoui5CANN0jZ3lUfKqmS3VsvLiEqyn1/bS05yLn+VSZV5cZbVpMyGbFqZ65OOv4zlSjdqNdtO02+TCnEGVvHblDTFD59tF8kbz6yFGaNDfIAXEnIiWzSqjNbtbyioY6AYYerGN4EVW6oM3Ylsy6yq/am1ihzIuoEy2lA83LDINnRFzPdFeNPrSLxaljJ7Wj5uymG2y7FW1uZcKAdSburoM8ID9ploY00WaG8rmxSTst6wttImd3gUepX1wbxsNU8Nsppp2DQJAEOalyorCedpWgP4D4TJVLm2RSFUVafSOL7NpoQvahZ2pD8a2PIJibat4vuXmXkWX2bRQui6UhTO5D1m1vdXCB7/J1NsbYfSs9SEzlKmphC6dKPytMnU1zyrpLHrsh3ccjLRZ4R11fPVJOKlMnrWz2tfMxHq+grboeD4KMXQHh09Yc3I3fOZDtap4XZimde0MXMigEskyVT5rGykcs/XC3i8vSirSLWrQbBu58XNLZBZ/yEo7W3ndqMJCEDwdqoFn3TtKvaAOk0PJ5EXh0VrB1tkCt0aZSKVU1UJorarCFTciiAYaKixC+Qd0oM2ytphyIs6YseKh7ulbITuata0huxmawW/VnLpi+5C9USiVSAVWUYXU2dwsi8xDaeCaXo+z9aDwPdc93uVE7bR9s6AZTNTv0ilbZzNUTZnsRuoL1MBlBw+miT6b+y9tdn6K50iV9BHjH1c7MdfV6CwM3hmXmY/ZHEUXbK7tfc020lRXb0iqyDFbT+C8FhAASjs6Vd4uxPzgV8sA2s55bnSpEN+4mlIfxAJ9aQ+0DIYmMytbvBEs6stQF/eZX3rpfF3OL4qFgbEvru48JUbI/JCUy7UvM4PuAwnqRSEFitso13ozUCBbrf40uyJb1mE/gz2xK7yitlUVEqnm6KPhvoSXBc3xZwcJGUtT6iq7R6CLVhKbyneZegNB6BKpHGTSZ0uHumyqrQzvaJKXHqM5+WwDlz23WZCZrQ7pMu5rF5QjLXNgC1XD7uGZlJ/5ATXRno6DGcbe/wLPkSoSWeQus8IXzS275HsuxjFMqI36Nit89lJBexUf56y49kFllFhSc6XbUHd/WqPXMdIaA/VwoWG31X1bhHeqrFxlsqse9hldPpmCVAM/rliMeaUe3kmYf2ffbShXKnSMQkFZdu/RrMIXakU0qof5dtrtU2eWmUP2wU7XE0lLqeribsxugs/RiSKb3texkit0W5Z9RBfeqFeU7Ro3HbelJHx8kShcgv5HvBRoqyLVjAI/0poYeDNAyDZgmftUiyD16gIyOa6Y+f9Ss67WcZoVLivGtV1AbZOyHdOnFMOim9Q9aT0R2GZJfftXeJZUOw/PSmf3sS2s54j/dGX+MGRi9/dUSEGinBdr9dKyoqKFJRAK5rQqoTy4sc1qZUlLEWY2mx428017ODStX0AtdlDmaOYk24BUaYNLzaQW1aGA2olmgQZcZPadpfemBTAFSKRwObWRmg1AR9LejdLjBR9s5v4/Qz+MGyMASDjZIVW44O6HbiuItws9VOwq/XsEKacsWyd1OCLoZabIOU0/AX8k8kAhgNCJh7KF9LSP53wvT+1q94bueiQ66p1ecdwbcGSmhA0t5vPL5wfJnuI5Umlt2TVCheKqLrJVc+92t4u2TYcz8VTOAf10ESlT3hteONqnJkSbg/lfQftOoLsOD6ftYQv6oKao7cEvb7L7bJ0ngQt4PzzlhJrFmYAMHd52uhmvfSyWpDDoYyLnMSE7sQkAtUlYp2KmSh2XcY1P4yE5bxRuK9RHmJURCnwzSOXTXEpqnm4ZFrUc4Wx2+A0B7pF+yyRVKBf/H46tKm5PxR2hfFr49uRFivoLvTa24HPUBS1N+Ss8S6r5A2/rCmI8LSDIKohgL6YtrYsZ1tilHtQFHLJ3ZcrUn0l9L1owNxg3vK3PsiFmQz99zN5kHwI0PnS+SBahnWSKjy3FpUrawzuyynRgwAD7WT8Qjqn8BwyWaSBbwmMfwX9DuWQKR7ICxEBnN38da5R0uOSnDVfj6rCEd4lh6OWfYqjR96Eu6qHnv4rnSGUytX2gddCLBzTtw4XNoZ0P8yXbH0kFHFzicwp18EdXatYWtGT6MA3zc/aZPrZmbMWQaZQypR4Niy2bENPOTdmE08NPefyIlAz0hM+o+Vh02HxO6sM30wmoyTSqtDwxAbbuEZ+/+2/AqjdnYzlfwjmp4EwkN6+CQkNT0TKIAcHQ9taXBWJS2ng84smSVNdmxZEoZFoecaazn+zPVPCD4N0mFGE+Jbcoy27uPt/E+TV8Zfnq/XPyc85Ef4Xh8adLPP8ZwOGwFMV+HUdS0cAPbGjVsX4GeQLLn5lYOtIKnc4vw5hU9Vkcu+EbuwP1G30i4PHTfxrOdsD+YyCF8vlxDZ/iSCp/y9idZH7G8hWtZB5fMoCyCwChfWoo/jZGl+gXCH85uDSSqrpbCqGacqqM/5yN7CAoz9v5X/g5oMT6X8VIKhiluj4oYvP/WFX0Px3qL+RqIFXaTvML/2aocebuCxhIRflYf+HfD9V+ZTnhQCr45r/wn4CCUo99Ab+k6j8IhfvaQouBVD3d+D3h4S/8A/iLgcCRVAhHbwYv/ZlhrV9O4b8EnyVe/gQDqTo3DVE8tOuiqNKZgU8jqDDQirbm/sI/BTo196sYSMUE5SWd0xIiLinSfXpa+BgVtwtKiPcLPx1ketS4VejLGEnFbnVaG2Zy1nmfZZFO+hq0YZF9mA3iFPVvTwecfhCjjGbD2VcJqt78L7aVNEfx15OLR1Jth8MExJ51s1ufiWlNVFFF9uCnVi9pBsP2rE+7+wcMc3Pj90X7yUTSOY6j8eP0fBZorpDmUW/GR6beVrMLvKu4qX/egTmnCn3X1McjxnH/5x8+tumnwCo1bBP/Ko6kOkPXCBVrmlWqbVGs5G8+tkXWpq378jTBcXGb2tAO81XVOqvT2i/g6Sj5vcrazdBZfrNCw6d3aakKZeI1Y2cuTTAa1T0EYfwpPaN6MplyxNPso19RyBtatpDwg8P2KRWGevs4CXL+mkG9kOb5FnyRiwe09q8GlQjPkIrN8qkom6tsWdVFvWLRCN/SeSP4KVekp6jtSpL6OnhV0DIH6TJX0RqlQ6aezvCsplko1PIwLw6VXaBv24mgw6RbPR1mgUHquzi7igWIPmOxGXXsQzH9tIGJdE+TTJ5mahI5KE/U8BUIKa0LkdY9Tq2pL4w5D1zx1BSnxQmxa4/5TYcVEgNUOg9bnSmZI55hng8qqYrP7z3iytpvWLn+HKl0HrpdFJnXbbFuGI/C+UXV0q6PbUG5a0AcpfL7VmUbrfwCncdNJhr3YQ2Vdr+m6dPh2D+bvSundOrS70VYHYwN8wWUck+LFIIOA6mm86zttN6CVBvZxVlaXYQirJ2jB5OaHZufBvinQ74nm+agi7Q0gNLvpGUDfn43LIPBj1botDq5bmsxHk6J623m0gqJo1iMGNnr4XxWoWYWb+7Y5VElL9N6CtwB5kq5wopWnt58xCZV7+GULZYQUo6RYwKgR2Y6xkWKLZvvnAU+Qu6ve86Elb0pPHwNya+r63SAA9u22cpn9aJt3vS18ZllxRWt/WITyypx4ZxTrZlDK67W1CUrSPYya4rWBfyybdeuUvBfNNr62yuv+Nxu6rZVgck/uX1j7wXbTkjv2Jehbr1FlJC6BwWQMKW80OOKpTCf4r7gKTVPW6gHSZdnbRlSV4QiC+8jiimK4KrtKSfSbZVdjfl46MjPE4o/hs4U9NtymEYrecimtAv+6A3T0a3EfQqCOXWIXOqrSGbi2OPEMi/XnkKa2mX3R2GEdRjSiQ0pv4p20PB4CHceSIUWP74OkKdNPxzBc1dQ9g7Bo+a0xZ2xXbyotap8jAV7KwyRSjs3V5TqQ/PC4XqV2+bNvZnQQjsHybmrqzpWvuKKhbezqxqivn+4WJjL6g2rfQjOK0erRGtVB8G44OiR1npfiWVWtuV9kVgY2qcIlL4VJpG6xi0CBEiX1wdbeBs0rTJQEx+1pSlrOj2W87jJVrXZyryVRD+oQtOE2EPm8YZx2HMwfXZYlFsxUoS0GhN3oCJqSSaEeA7kKIbVtTXkFCxaWVpDu5s0Ss3vRkkpoBjKCmTKWlMsRq2LfyuZqJ1ItQkVZZBPB6PivwvKzFT9+ELoAR09bylfSf54otWfe1WLJa8kZSJilVqyYtIIv6Jdaa87O+t4K5id1TXoDf6MV5atpNH80hmGtno9nEJRbJw2VzVry6bRHiYKuCsQhdMHbQ+wM0Z3dSYn0ttpcFkxDe9aRxPbtV+R0vHVb1A+UciLtq7mtIkg+1jEqotts5hnlc1c33OrwoIOF/NdQGBwV2fRlage9d+UD8w9JVWlFmnNeqZ7qNGX4u6DyqpV3HqbcsCVRCkPr8rB06nxoSmzlblbOd1zeaWKmR4X3Ni6Lvgk4P4bWd8uVuRNfIQGNyJROx23uqgiHbOXLcB+KPtAK4f3KVHGX+LLpNrTrGRNqczS2pgBnM39bsFKIVq2Y9VyxRY7M2RYAmqEcbMXzL5yDWMvDvY2ypp5LiWPRrP73lXjUShFfZm/MoHdCPJZinTRBz8cpRBvVCVLGftWich13ZZVVvlw15gCKqb1jtjSidv2RuXdTr31spU944dwm894bCs3UWJuKU6x1lWUxqdiZrMqfOs7p7dsnr2zmzAsbFMLaMx3bdOTVNmO0XppVhf3Svqcu/Yu1QcmWbnMM/emmDt9Z7QojF54KfpeGEjefnRV5sFb1un4DrULE9NAcau2LWrNXWYX9wYu10c/4QKqUd3OUN4qeyc8TNW34cukSlv+WiLTmcnrWChzyqeSchvN2sCue82GzUyMrdDnE5BKzCCLL4LUu23LIik1UWoWWHk9Hn1/7yUzusGlXDK/onN22KysBqaQzup8IgS7NoLveevyEh7m2l/C52ynwYAR713FzbqpUSEFeaWj1btCi850u1Bqcc/aQPuI7J27ylH7yLpwaS9hdxvJ2YJs7Wy/oMCr1uhF5TWjdec+raRtWR3gioDVG2gLQMBV2jRQU42deyNj13dgsXVDW2ZzrYLo4VhN1woWuaL1fFEpA6aRpWqyUIZFI5m7N24FLWyL2/dMQMt6GA86ZVLtvEK8+k34MqmeBWdNBG1El3YbzNZ0rAn0+WSgJk22CNCoS3vazF7s9slgdt1e0H29HHcSOb8DqSLzjO+Yf5t2msPY9ek1woAPd3REf4fX9HLG5IUoXSV5ofzK85071LJi3Rpiydi8jOwKXNXXec/0nv+mBaysgRRDmnSM+/TOfiIXMnK4PpxdZd7dRngLxeKdZyZbqUqARlPKJwodB57SntJ08ZlLOzTy8JFODEWH1+FykpR0w6OnrcOsm0DV99dtZm8Xc1SRtsTsrNei7HbSlspoXwoJ9dPp30SbLWqUwedKXUNhK7PKVuL2m1bWEr6TVLTtAP+MfKArOPBEtIFSjCac8dH1tIcWpMk5bbdKSFu3AWoovhnaKsthTvG0M0lVp61ZhJ3wkq70OZGKsljJNzvtJzu2LDQdjFRN2wmEuilTpCf/ZPiJ9dStustnENGGtorTo3smx9ODQGDaCUy5DmTWmEb0t+rev73t5MFvYOra7I72ElTZvWTNn44mjriphsV5FeyhgX6p/GzcWSuZIPlEqZGkNw/ZonR2N6MtSyyvueSa9aKNLkowh2B/1KzLt751C3BQXxdLw15nTrdZlVeG9NO34LtJdSRTAnr7HOPM2CzdQ+NUT38mDFfobELa7ZmI0wwkisej7vLudBJZKkswueSSNlI7u30BXQu9O0EPVTqNm4Gqaec2MXTse8pFUT3uCRtqhHftDb2shKvJsz/kjLPZxnpXQr1Fi8cmtSNG02olmMnTXorOpG3G0BkQw8klKqrFeOYdZ1wPKUKG9/uNm8zueJlyn3DXCVI13HAjRUlb16vfUYPelNeUPrFftMEwUXC5anmf9pZ9E76fVOc4JxtQDdI12KNPf3wC6pWRMkdh6o6yiefGT0fEVd5T6k8BTx88aP6AG0XbHMeChpJIAiDN/4de/ekLCGnHsQSpusL0eMtlXfvZhL0OvKYj5IIpc2jbOSTVbOm8WraXYxVjRo4jY9dySE6WcKx9gr65FNUM9CH9zmWfwh34zZr2TOKSIT4CY4sZrvezCiEQr9j/uUNhY+u/AX+PVJ9gEGVKLPFXADOmVIeEr5F0gAy0GR9vbjt6UktDpEppNB9BpW4hiOjMZwiF3+kqKbC+NVRTWdYVKPDeMw9R6d2EcgDsPeRCb1P/7uG5pielqlKSCgQuj3V9UmuhZU55Q1Ilug4SNEgbDBspZzacMgg6p6McZxpOFgfdW6iFJ234Kn4qqQYaDRbm60BDT6T6awjHWdreFZL+kSKSynuanCfha1SnjKDoQ/yTDllmiDfgM1LsXu5BYC0oLmHoRPaKznsEqY4pJYS6Tpr+pAc+A9/JDtQcDqpNi44GRQkhTlXSg9HDBZTxohSUowm3tuALKvTb8FNJNRT7jfkI5TdQdISASNGh58ylEvIuUuLGb38+YUgXQoB0oKvyPBAt+CT1LcQx3UAJ5fSgF4bzNwExHWgUTxbwM/A/z3IuPeKYXzKdfE1IGfBPgvTbt4sU8FNJ9V0YMwt/Czg8wsToZLUJKenpqeu/DY+3j3kA9yHR4s/0BUiE0Iji6SxSwrHvt+Ou6tGJfQ74adhB/RTHVCxPzyg4vebb9Qrh30eq7+npPbxu+vvlvvoeiNfpz94/TaqaKkRklOMBlEcMyWv/AqN1+i58H7P9+0j178N2oETvus911pBF7qmE8KOl+Sq+r99/AP8bSfUteCaL8XcK9WdvSLkdh0+X32GkUvY38A95Nqc3fBHHoYZPwC9p8O0E7b3YDkHxXuRNDYc4hSEvUICYGX5KOinEU99tzGb4DDgZtE8Lp2Q8R+x5HtP0TJc/p4A47+Av51tKzsjyR8fiW/Fi+9jhT2rBxyh9AA2Dvf8+w/MD+J8nVZ8Q9i/xLB9yUoSf4pOE4V8viEcBPoL7frotDWIDvNsek0x/C3bb5PbKSwQDf+2K8V3eP8bpI7oo3fmRZuIq/PZaIxAE0FJvDeuT8O53OYve70aJ47tSy1T8i20qGTef2J3vnqR47EjihXjqQYk0dEASg39yIdEBPR6Mxxz5Z5A7rmW/0xOoj04Md6TnTjiTGojeIO1ntBOnm7t86LIBT6Vql3f7ofzn1c/PwX+nVH2lQ3Ka9fgCPmM3As85Ze87A77kz4W7FLie4fGho7iBUOM1sKic7ITI+0e1G72mn7ttF6thXOdZPDUOez6wItNVhKT+yb8Uh3cp8qDzPfrxUIRHttlLEyA5xys749sbbarkPAkdXVGl53aUCVTqEP6USeJ6His/SwV2E2p7L4bJXwK0Rn5+kL6oZoJJCY5OX+Mr+htpoJfupRypAkX1EIg8PrFEQ6Ugr2TBpfOl3O2l3tGMyH535veBTuMn9PcWuoPlcUiUm7AXgo9HmvS7bc/HyZ9HyY6JXmQM4wSf9pEmOZ/liL+Pf6VUPZJ5RBwH2b4Xu0FnP/YJsfXIjV9xHvbxNWnKE6VSN/fb+Gevz3OA0mvzgRRPMQw9HUHnCI0YlS9cPCjG9BGGSr7SRkcJHhkr+ioY8rB6kUd3kipKSfp0cKkbZtiA/gV0RG5KLqIUZVVyrrdinIf4DDwNNnZb8L1Iw51nLe20tw8V1SrZsYnzq6AbL3tYIHEpvXJ7KCPwJZNVY9oWhaXO5Lq1tqDxS+J4znM9SAkAAdNPdFHZ1obT4TnDHcbvJtUumjSTmcs8SaSB0OU9TNZZg+VlmlhmE60bvb1s6wZirC8hBD06/MzM4Mr4idJ0wiYzSMd7cNBgwaF9oBdoIK/LcQGmfTesYBDXyd0WrgIZesomagz0B5eX6A2I+Ve08A/jXyhVHX86vsL4dfOtUjUEq2Oq6xeyJH+926Lj0xsjTVrkg8EAs39JrLrX8T0p5dGgkJcHGoAP+ew8yKUXiFJ+Hhi9HlLZjjhSGVWDw0KCA5GidST0m9h2ujJVGasKvw1q0tRG6PeskyK62VHFQLWD347vpWkBkHloADid5Vw0YNa3wXtf5XkZBa32G3Ae44B5hpSzAj7aRO8o8XSXOoLK4abO3rmeweyh0tyEYNurZvFHxCtiVfrCyyi7PdSL9G2wC3G7SBojv6YVmLRoI7/WHIaH7NEArk2J3hy/gQS+yPz2cgZrl7i0CcIspLzWXT6hbKnUSukMh0UR+izaEs065e7e66ryRrqp9VVlXCU0mD6mGY4BXdSUdJqe7GH0BLRnbKLUEI1RquACwnyi+8gY6msuTU4z19FpopEMoaLpySi0DyWqoZ0RiWIn5fjz8C+Uqk/5HdQdstY+iziu10joYbfxhw/hLkJvaGz0oYS3Q6+89GZH8Qc+Ewc/KeUEWAl5SV4ZyNCnueMSfjyCHC26xp25GmTtYqPPhwZ4OpCHQpsBoC6UXSS7ss93PWzuTsIbuRSiTEdpIZDhZr0O1Sw41BQKEqLs76+iEeAffRmq/eg1wuyC/COvQpei+N12MDI9qpp30Vfb63rZhrYtozeCzj0bQK7hCC55/IO+7ncTsS+NyMtqmyeTQO9E5JR9+I33JUzJlu2aev5Qm/XST8B+cu1b9fbaa/wMD6xVtljBRFGNepGWRNYGtttpbto6VGNNO9g7c8aPvaYFRGJW5XpIm+/nM28b+HM9uHqQqp2xrYCJm8BWpIcI0S0qIlg3C6G90q1SRd22K5+XfhaPHUMngQh9HWFOITYgOmwmvOum9VfQr5wMaA+p2smJIDYAZd5rX7kGFjKHoqCppr2+satVBdl+XS1ap2H812vJS0gXxDeV8hPxL5IqcpTJqI/WJiFWiydSdeY4A3ACxk8AF4nR9sP0BW/uEXsL+Ol8jx7hrg0G3jKd8og+IpfrEbAh41fiIFPFCbkNHZUFK0CaHZ4A94tHDmXkOUR3OajAhD00fy75K1eOVdzDc88h9+S9x9dcav5/tNyVFbyYGTWpM1r6oqgXrQ0SDKHFnl0Xyrs1HCmYnbbKZVrqA9GuzNUtMQ+4hZw/iBscH0QhfB8FHCbZholb2vnKfvC6Na/D0b4j+JCwR/RtHyc70gMkCJewKG4SZz4OVoNaulsX2bu16CuT60kX3VJlyyY81BUEU9dKHUJYQc6N7uTvLz9m82qZDkVlOm1XffCC5b7kVZHNj/4n1/5mfXb84J5297TR+5ziP4BS5qoH21Y8Bi1msKNRXt3fQVCqK5cO6BzcYulXDUQFNL2pV1XaGvRgHxQsXdtqPQhxj4BJ6grSQSy0yztp/tCAtwtnyh0vZQ4aTnCLeb2HfyklnM3aLr2EdyhmNwYutnC2sLbaR63dvX1rZKxqaziem0FtUSk/E39bqs7E5FmgP3YMVTdxCxsOZhqvE2HqcNYe+A6jIkwwg2s/gA45oNGjYQkRX2dK8wmpMi7fs7gq2grSUcL5go9y0qCwIwhcafVfAjwE3d43E83FhNMZI2LdkOsYzes8LNG9w22MbeMODk24IveDPEQYOYj4rtRNXaTlcxBUuJv5qwk8eJ6XJY+vuL6eSOMr/J+q2JXGLGkfwka1KK+qdCRlDkUsmbbT1fIWzlJietHceJJpWDpYCzJpEAq0ZnIpu0nMY4ytXYE/1eZjtq7qmVi4Y0VfV9ewc3ho38cJvEowHd5iXNOCj11ATMcRWpFNFLQxI0i5dvms3Es//5AV/i5TcPy4hjk63LVzv8uvSyZp24taKqvJxumW1mxn9YSJUPGGdg+MxkOYMG8H+SHAIOA1tWkXuWmhOVjv0jpzNffRtEZUsXsRjVc1eNo33pMjOcSlMsx9aTiKUoV1p7ydUx+sbWZO0MGVe0jVjGw1rWEhCy5nTWVMVV8UdXDaOIloE5HfZfBaxnXtSafRvkqDDkBrr2Cw5YJSePp9lJcgTKhKHbLsKlaRuzqcR9U/BT8kVcfjYUQzQ3AzfP4SbpcL6Odq4avJq+ClgT+QrkOoFnWAR3dsETz1k8QBBtxDAxApvn4hKzpENp8lFUppik0+A4XAFJCk+qJ20E7QORoEm0BVDVoaFgbOwuhJ8ksjGnUAEcB5fAefJNbhqtHxauFiq9o/TsGNmJRcBAv7B3es6yl8ggI2MDRFdiOg7eCJwIxsLyf4LLWr8ogwwJXardfrhY/vIRqNa+7BVOCPVr+QASG4n9IuHqVZdV/U1sXG0hkkcM7u71ZWM904s4UehlWY39da+LXO6SgmMexRSbhb2xlM1zaNZ0Tn6+WE6x0c1p2G1Q2vYI4hXIsaQRM0VqVLrqscATkEGU/Xlbnx8vaq15ROGKYEl5rrJFWZtUVdxsa8mKRtFuBqsGnHxl2ltoHqr11AkAXLO/TRbFUUQRxHyPklya31aJOzNYzmKFUXD0Vl6oVb45KAyNQlghof6iWCww6OLoKlMF21reyqpdrchyHxJLBZ1Q/qrq1hPWk4os/9vbJXCB4R3iE6dd41DW4+vCvwuiAjTKmWFQhqTHu4aI30L7OsaJ3RprUUxMqkIPx7GDSUMQ2mWmZZNQEHuft6mGPYjgeJ/wR8q1Qd/ShC14ydK+Eok/EZjPnzgCugWb4ulmhIvZDuHsyEwGZ7vVrW9mbLtsfRNlEmH+aIGQKSWMlOpmEnfeP2YrdNd3BNG2FkE531cIqZXr7Eh3i7bCcowRnT+OQ55Oj/Xv4xg6tF4jlz1SpT66raykoIeOzazhe1r2p4Q5SiH5I4DCPm1aqC6pzTYU15tycLakLjV/Nl8bKFGJnLLQwwxJi4dubaNewDhQGutXXd+omgjUgeNL8gqYKbUV188NVyUN4IjB7U/dTFdTalxsTwrrBvKlGF1kMxQ6rWb15+/A0OjNlVzVbEI58DxT141AaRxkkMPKxNKd3MyBdcz0SEFrg0MInqoKwvgwVHwUWINPecpOpQh9ou6gohEPFu2u93Ubg1VVKpdxe1byFxowx/vDFQSdWQnfZQk0JRlOi2HVI2cOlWKktqIWGXshAXd6quAlqMG9K2weyQHX4zS7heDlYVr14a4+t6uYGuyaEC+M5UlKu9kO/pBfZsI7Cl9NTKTvjl6x4WV5Clb9Bbb+Eyxxl6OnhLPXqo2/nqVQlPU0+qomgRf5LRHDYfZsVa+zcg7W4vUzJ81bqSYsWLtmogVXaxiChZtU1JJ0r7b1qY8S34Rqki3+QEvi5geCFKk2X7eoY+fBzE+gSIFHymKgTBmaobh94Ft0o2uXEwzOi4dsfM/fr9PoKGMN3nm/ealePSwyV3xHzETIgwGxoviuTth2Arp2rv9K608DSc8ba+wn+IUheQXhoVKxvZwYGC10Li4lakCeGK59qLqi7Ba4UFq6lsSmxGzh0dVQk/8/ZN7eyQmyqKPUxodIiQisKqQ+sWwcPA6aq5XgQYqmCL6Wq13pXBgf3fqXko5U1bQYGO+ZLxGnBYnTbHEmfo3z8cNh/9q3ZIq6kh0Id3i8qD4yWLOfga5K/bwlb/V2uNmeDGEw6Z9w+/w9nRe6jYDVQBnGhXdsLAWLaVdAuHiqOU2q0+IiTns7ZCvDdIVWZrCHoxE2Cj5NglDJtpCR8L+2ir8Oq4E8dMxRQj4VHaNBqSDuSaYjMoDPoCiHTsAzpoA2FQazi0g1QBvqKzRO4QlqEStqnaAnEcaghnDf67c9S8oopkPy3tGR1wGCRsOtlVJUJmLqBIlevkSi1aqAz8Nh4C8cEWb94pdeENOABO3rTFnXU1G9oBeuH9bWVKVw8bfovBHipLx19kaiU57f+GOMI1D6eBoL+Lb5UqkdYRE3hH5wnNZ1Gb6r4uXbWnhSnD1iiyWTTld0Qvb6ESfLwixeA9WPUhKzS7tO0fwU43Wb1lRi11pOCiVu+OK7uZyPeN+j3GG38bFmC+3thWVxPhEVMLg7AAOMztwd5bJ+GnfLBrvNy6BdS0f1PA75B/RFkFzY2FMw9vo9u7+yml+obaLFtfg6Ul9autj/m/a0gVrIXkHe3vpdz+YCAp9sbN3lpVFDANH1/Wwc7b0OgZvBhlXUXCotRmdVkFyqBPVHMOLt7ybhSjLFsM270HHGC0oMCz1sO7J12P8Auwy3o5bU0kJ5fI//HlhyJUtQqI1NJrj1AFqfmq2gtiDmXrpV0YeKCQqpVPdirdtlnNSbRKaJlm8p4lLw+sQ011cv6FvDsfixm84vFLFiaIlZ7cmATwAVWC4rlEd2dFM4aw3ZAuKHmV9NedSVVLVghkSXxuHdm4hKmjoC60qcA63N0fPhaPIp5t0mZ45SAs2mhxSW++m9GYyLRdjLmUE0YN0Ybak3wcqA7FYjXUZHiNXbT1kJEBKCgRPR4bzquwt2Uys5nVnXmi1f8WvlGq4OD3tJwbIlU1lHjAVrKBPi7CAjpeN3KX5g1oV3b0g5dA6IwFjzy0pBiKlhxztMfw24elX9LhBPPITFHMJutl8kpowTGnTR5w/27fWB3rAu5DtY9R23rmb0t0nTFJ2Qx4l10sDDnKh5Zsjq+z4u0NOEv5CiYFsQUNXMFWwgiRKiAUfkd5iCBVE8qJoTaDDgNl6WTSF9Lke/eG+EPRGh/5el/6NdHoJbykA4RQwTlpHXxGosxiZHm1BN0StdBKIttmWQ/bwole51K1WCeWUAWKVU5IsnAExOoIVMykqemXdGUDa9C2sAlPQUGX7yaJO6f24d29m8DhLI1NtnjAS0tRHSqlIAb6aHPSv55a/zzeecjm+Bkx16jvP8O93iGEgYQWMEoJk8GevhtPUMjalCZhAMwuSr4fegc67/jSIryKorI22ZB36TyFcxm++Ji6wbZh5hduMmQ9sJSP4OLNqZlnWNbgMtIa6TEa23nEh8KeqAy3fChm+BevvBsq3ZrZHN7Cz8G3SpWMsm4j22kZWho+sa5ctyDjZhp0DHeVqbg02q28Wa+MmIxKjF8/9oCq2+QUqUo0dKAVtau4flEWhdO1mpP1bznbzUK173ztFjBqyZoot3PO2NpBxGAz2iR/j4D6I2ElJa3Q6SpQWKrWrq1DUJu6Rplun29z8swJav2eHCI1G/2iE2pJiyfMOu69egmRh66PL7Tmt3X9qETVBp6Q3awG5qBkIyM2b0Y62uWUKvB4oIlFqPGI6fzMAIRqVdvx3WpaZA9gQfKPHlF/ztm2iiFEQ8J5gAEF44E1bQjT8zNU0ksuLIUexe1w4tOIlNfjeRzs2xPTo/lHlfEZVDsjdy5Td+N8Ujk+deymzUL/Nn7MHqiiakPeI4kSbPSAi7rRpj2dQ3J2Hsk5ivvWw8keI66D/eIxJEVxqOEFjHjaifh+ZgWf4uMpQUzr7IU/W8vxd/CNUoXowqvCcO0pjgabFL5pbUv8bMPNAxx8v9XO1Wpag8L+KPR5NfQmQW2GDGLKabxq1OxraRBkVCNVVqKH2fJ5bIlf310NSVxC1QYzT47wu8Phk/4C4w0mHLigeHpJ5/yo1lu7JEmls4KCzPPJ8a5D+DOi2m+q/adSpXupeYVgCUU/oHpFi/bKzp2chxHvVDYnBwhQ5ypxwLtPLxUnRko4Zx+Kto5EVerNM5w1+lRPUJu2cCFV6g26FMEhPsHUpR/Pkbyh7E1rj04u4VOGO0eS0iMuksP4LKzzKWfbAT3Uwc0PjwHRgKJ5mvvz6Ke9qQM5CAnKruovF3HEYRpGY0J4/PQpoFUfs0vi6/j3O1D7BzDgwLd/F99qqy5h8guPkBOaw8FNIL4tBrOB1lzUNbyHQN8/KIoqaIQByJ85mUcFg/qP3Qz6kLYdOaKexKu68BIhfDHN3g0mXc1XNpjlhy8deWMHE/gE76D0B/VE/6o28utT6r7fI5lAtdbXT6VqfiUv9c7VmvJxpbKUF+Xl9vbsBK4jhlj32zB68M/BPuH353DSpGewiArHM8Lo5+GwOfIXP8OZjPxUPA6BF62P7ymeeQp4DOOnT6Duvr3jBhyenrH1z2EJ3WCHnXd/G98qVcnkh10DfVq8TQGJfUcDPgPeQcIgC6MBspt7SNVuC6lK6aU/AUKPRz4bw+sBdUmz+dNAwxoILwaWgnU61G9PQvEZHoZSn+BgUwh3gjrjr8IMAwD1J67QvXN+4eulGaZaCNZUCKcfze0J5+/7S3zR+4A++vJvX8bD79OP00/s5/P48umOfw8P9ujvoiucPh1F+ojntEHC6VDM/zhYRKrvWlohOPL838CnUiXSUjs+rFLjMe1p5kJ0yei0kXLaqd9HfaPOB20K7x+9XmUQ6Gt9WfpnWPLLPKmW6VCzQwFBesIQqvjc1foqvsaucJbo5ZZCrjPA6SymdvMxDSAP+Egjf1+Rin8TYOf/IXH5EdyN3vB/O8agBI4N8fzfw6dS5ZbkvHWxMZCu6NKMBHc+TdZBd6fA+1lFpNrjaCaBBqoKG47DqP9ZGFJNQ2LSt3M8sZy/8E34Spz2X4UT7d3fX2z7RKp4lDeKUuGxWVoJNlupWnN+uSiKh6SxnwxYPgVCq3OWvKO8hM/F2r/wC//ZKLz4q8Wtf4UnUjWrlxZGp5o1QR1anyyNsu0nrtIX8NSCqWeinV/4hf8KFOfpCH4E51LFUyJxGh742oHjv/AL/+NRhOOetx/CuVRtaaHvL/zCLwC0EvdH11qcS5X4ZOruF37hfzksbNYPDF78kqpf+IXnoWonf2zc4lyqaMvCL/zCL0Ci7povbW/6BjwZrRjiKvVwP//LpTS/8Av/c2HdkE7tR3EuVb2pC6Xu3NV16RTsX5ptsm1a3jfiyzN+Bzpz9hG0BPsXfuG/ErY65j75QZxL1QtRXtWF4x3bm6K4yie+rb2UWrdqk7bOqPrp8rpzbNZPVi5bX3/farlf+IX/DCgvv5Ix4ptwLlWsz0VI+76Z9pTiaNekAwW5r8PvJCBzncYzjvO9p71h9H3anC9d3jTCWdueb9r8T8OzWyJ+Wdj/tRhtgFo/brr9YTyRKpgr3aSNW0MuXtpehD/7ppGe1qevhFOt3axGi7VJ+1TV9K5Q88Kaq+QCptV1ylFeYlENwvgJvrieGa8ajOGX7/gynj7yqZW0jzkR1HyVfl1SqoQzKLiwhQ/2pqYKkMRRP6uzZAr/Ofi3ewE/XPyPkPZfgyktIVLZkAnxb+ITqWL9kI54nxLTH79EKZpqsspa4e5dq27SNjylKIuKyuZVtWib35dSIyrLsrQccMy+Iw3l7fgEqj1n5/njBk7ajDGh5bvF7eI7en/gMHvKE0FQdTs9ZiigmqqWsgQNsGlLPuz804wQcKarupWzu+g+ZofNm0Om7m7L4OP5Tt4Tvrl2wJcl4IdZzA6ryc5QTP+F0m/fnnaKghtb2vz8jVD12RbOn6wa/qbA1m8Lyh7zJOv3j+JTqXoWPcurMvdqIcq32s9pc2vRvrXzRQFz1Ypel8IFoYOvL1KOio0fTsXrxecb2mDHyrQAPn2e+5beNT2kHq5LmjK7CKJ6M6fEC+NtKmvT9q7nMU/xXLse7Qoewv9aF+6XJGhJ0BtXSUEn3xPaqC3u8GLy9J210a7ZzYK8wq/DDnux15r/ZqdP9oKQ31uEL+/3+hQbSrbwPKb3P7JrUVnr5dkkSLolpQZ5Fj+8xvnLTN/ElEcCmHun5edZAA5farNdPN5chM8ffAbfLCzz+u/EG8pf3WcFfKyfgW+SKsqiM8ld7cVecFNRNphgdHsXChtsgKcoWFnliMUWtva+VfaYfGeXpKpIRsy2gzZVV5A1NWywVaFaHw5ttVJzWsELAXWKUqU6G+5eZnX4f5E/uXmj1lfLz83DEBcVnvJWqLV7AzJRvtg21Ae819s6FGBAPOY45eYfp7ihBfTy7n7junikfNrT/LHVXF9y44WBREHzq4XmdHRMRembjgCJ7+vpwQ4JlejC+PcTvCtOW5dtSs51wvkD9ZhO6wzHXsqKBYpV9WlDOiE9q4Jxhs/ujyw0ba3arOJk/lmWFPJp0d6r8ITbvlBjQrGcP/6q6rsviKMyLJl7IPzJWXz7mL5jxIaU5RMMe5WPCT+gOufLdekokcFfQN09dsFXHF/7+7I9lTlulfoeKB/LuQpn5yr8HXyrVCHCmjUT3m87yFCrwpVE1ASp8nRGxZ6xieG6KV1460oxMcfK7RqKk2pHm+DrUBfF/E5tZvvmfunfUsunM14pW+mAWAc3QkCNVZ6xZnHps3feBN8+vCyWS1fa7J4S5SDyWv0+7s6ta3CI8pLsWOFuC/hwi6IOvmkPymlXr8L8rfGFoh1jPetHc1d4bmpfv7ntIVWInyDfy2qVHd7cSMprKCFY94fN8v7whrIfC9GVMzN6l2rzoW4398EWrSNzvby/SFl/hh/H8dFh11ZRn3IjjZvSBhwo0dSR6Et04LjJS83vE4ep6pjlyFZXtaXEoI9ok46q9VZLtIHMnNq8sWHdtutmp609EwmCaim707KamNXZ+s6vmH00a3YqD6baHMURInEm/g+O81nyA+4f6KByBi/lqc0lio4fj5IAzYp/79fwc1JDwTiVvF0txqQUT2v+iPmq9qcqzT1l6dqMAv0UlXDu5qg9QN/xEwA1fcpORxgLvEvexklOC80mdfjzmIz3b+IbpYrH9zxSllkKtESooftpU6Oybkw4GzUdhXLVxJRI/TiFJgy1r712lhLJravKa1/MWNkG2AC0x0ZWPdSldu0CnEb5AOFKQkxNkzfqwUUzMfOi9kaU8Hpa9W5Te10NqeWgs9ebld34nBJnz6tG2Zlo6rf+VuuwaXYleK2u+LWdjrnBZXiHHp2HipuVa4uKRfvQ1stVe+9FyN5NfxMsj3SEH2xVUdtiTqOg290+TvRvaVIcwZq68UXQ0CTEmr87X5CZPdCu8cN8yHOySS7OSxvqY5wzh7d2Gm88+Kq+WKVUmFlRlY0PS6VgF+mcAzuvbzTbjk5zW05Cq7WD4B3nCx1l1Mi8oHMVJsM20rn1zumojYi1P7plAJVnDXMK1f3zyUo095jyjwBf92TJpl6bEwvfw/+9HlnOhvOodR4Z/+MtmnDvw3XqWuHTO05jwmvWnTzUAjpQ2elyQVHu1FdtQYoIVgHB+uTWu5Sp2S6Ju88HZWkTNkJbX/nmxoYhZFjNKpAa9vTsvhEwn/HqJMl1Sqw2wNZTfxYFHlVaQdk4UbHVqOFaCQb5V2fZpHPeu+MRNtwNjLoHr8/Gdb0idpx32914otSI+LqvPmQrLcPURXk7kdXE32sm/fWekVTNBTOqnUycixCFKVqFV4CZo+bVm/sreJaU8Fzzrizq6m3x0sLvjZOY0v1uGhNcXcz6sl40iyrSqV8zWKqZZI1qQOnW38BTeuuO52XOio9KeURKpr0OlnTT79XMB8hIHsDXVaTTjgCzzIq7ha/MNqmHXc7wBOgybekIJFvlJnLYzmwhhXeTprUwM4Vth8x+RWgv8LLwOJxQS384OVMHB7XiZf0RMldLIXm5gqelrP9tbecV5UzohjRgav06d44LygbigiV+fVelSNDzLqf0xYoGYdpWR0h/1H/KhYEBo0JhwJMJrSVz9RUdqFX+3+mVlBRPVflTh3R+Mqrq7nKrTyK3Qtg+G366aFOqD2Lmor3ZLAWd1gjbA1d9AGVdBFQxDAtT2mhPsSg+F+1qeoD2coKS78yr2WIOD52S2HcR/28q2EM1fXvtoV3OpjXQoZbyms5ideXbpMTwXq1b6/xdnVLKDHWDwJKMPVzCYp4kOZxM/EdEJOCfq9OO2hrKmf4Oma/Uyg9pP1swdDqx5+fgW6XqHPkMQkGQ81oPqS3Y2RGGZ8h3e1Ooxeu4/j0yMZPxlbyFQ8YnsmOVLTarnMEdk/K63DM3fUxymHM4bL+nvf4TRxqknC7NbVgEutRzGngo1lKa6GvNdHu7rTQdd9NNmmp2KSCwDdu6NbQ4v3wcKEVNbGskBHlx6drIZB2kMLczI6FZNwsSooTypq5bkCIdXpjQSdDioqXIfObTaUwT0CTETspcIoIrfr+qPElV60K4sdOVr6rFw2ihWgjAjR+Vp3L5pIW5sLU6rP9kgstA45XBlE0LdUmnXMNwIrpaufe8avhOynY+00N+xFLalw/3w1kpfTW1xRtXeRENRDF2wusXOp32UW9U8LW6w3VXRyIMpWoD50H9F3U6MecEW6+IyxD0FAiJBSWoHqDcFlZ7+KYg3TVCRTjetc5Xc87eX7pQp9y7A4bH1PSwRC9ckM4l+/zQFmptqlrNnTdctqpwZRlWvq21gL3bQapezcJhQ6n3d+viPPkajAit6YHu49FUW31HVtALsYaE+dtZgOYY1FaBehxUATbIh6ExxHgbXw6aA3etjTHo55vRdn1Y68GiW085bBQ4gJ46pKzJPw8/IlW91oNBEjXEYkD/7FlsOe9M6yux9Ysd22qQeGvo8CJijGpZ2/Y9k65EMAPev2yfHLNerW6SQPDLEramtK2sGg1+pkuVtYgW4EHsmhW6s5RdFH0UoBL6cAKxWZVs38Bsvc4vT5QnqVpU+JWVQV/5HSw+HT9YakSLXtnf5DCNQDPg101wgk4bHbGXFYKpxpjtrrz6v6BkmVzXbYVbBOtEtSq8kJTq1Wrp1+s2uNmEcoFTfhmVBeHqapJCFHDujOV+Jm9avykgHn0Ph6/1LczsZXiLqqIKHJWpthItMobOLr2pr/j12+gKDy1WtK0Z1NfM1lZV5Wy7o1NuYVLRN1z6+5XzUzvToW7Q0qaVdOJiGqWb3s0RBjs5GMPBMEzfNg25R9PiggwxT+JBhy4c0m7Y8SwDsKxYqnltp9bHjs7T7eC7hYIU/AARyIN7g5uaVaYa3ODVPUprl1XUCBKkFP2+WUJVSR8qv47dNp0rKdBPh+J3iGHX1EuSKhpfOhQHdUe5h+8oJN7nopckFXbWI3gSsdTyus6WVG+LoKJVqxD8hPU7d6Hu4DIWdhhlVtMpPkYJzhTw/gl3WsthXmVwLdRaUJ71Qv20XNADfkSqRk8JDGD+4mySvgePzmTezVwHrSPQ3eMJl6A4YomwpXOt6fglxv6EnAy/JMwQe9Ff2AP8q2vX01HOqWCuYZo4+E7uKkgVnTQHdc23PYqYTGCMZIVndtpEOvSQnkjQ9dJP6Nx1EzQdJx3pDAi+I6/LwyU5LVHW5k9uZuLsCG5Ia7WqIdQclchZ3rEcxUTwAm7ppafjAgVYN4jtrfdrZyacVOAGahmBz5+xmsjfECbUUi+qntMZS+5qGYbXV6qtnIY9aRDYEbhfgsuE2Pe63PM8+gVcZpNXywpuX3B+iGMRm8K3MbrEHYOYpdfJ22ail3dR/lHR+tCGTsbq8Nw0O7y9DnALtOw0pWyj86uyN6Hk76spPFZ7ERo6SCWdsgXLNr2i10lPwaFtOBOrtgLvtuPIM4+Qxvub02o54Wt7yOY3ajkL0C3oFP9mvlyZxuvd5HpQlvvSVzni5vVsVtHxvYQ8TtaF1zFne+0X5Cbb39zd/d39FEJlSn+0hsIX7+xC893McLBRrhdF+KNGEDDRBvpDaiI4HP+5kfFqEUwawYITYGsDrkA5/p4SetqqR/ejlAN8WkjVwXqe+48v67pJxfw0/JBUfQ9gh+hwcRCgT8cens49Nwvn6YQz3tNRhrgwnkA+woynZfawB3AZ/RUdQzOsz+IT/YIOFUPYpdOxfY/owOs5uo4KoTJhxIYfgL10TaQySi87dHY6YheCCmH0q9tB4xMkIop05ubJp90LXfoFKNal6fEOlcr3VJ8BPTlhENqLAPvSeFdCM9MZasV6VgVEFOwFF02hpq3UNBTT99FfG+uHcE9UprwC3+3KcnBBuVtAyMB2e7gEnO8gRx0XvaYT8CdxMphr6q34vqOeo4NMTqCjrMXax91w4qQbjvDYwzy9q8RsUe3pTDWaKbBXC0R/1HsImZZrq9ZXmo6/+z3L7hHHI+AFwMzwDgM8E/RV9M54On0I6Cazqyo8HvvKSz8/qPptUZs17Bk14j68hV3BO7lIt6G+r1CahAqBKkhPsf1+J51PFOzEJOXxahHq+rVdQFCiuDwe7Sga6ydwO7ZQbBQeSA8FYep6wqOkNuYpJKrUnYSSg0ezm7Twor1fteAUIHdLi+D3joyAvId+82WJ0Kums5abEEI6d+Yn4h+XKjqPcPz4FBC3cpI6/PxY0xPM+Sx3J68nw9l8CWANYs7nYrn+uCBkwP78hCAE9emPHjRufrKN3J0ft0dnypFUPWK/BS/CtSRDN4B3/T6d4psQSSTj7/du2yHMItGlcwo/Wid3E5fm7vJqZesgJutXdL+go/6q49P9jpQKpaNOX/ntwGfw52S37/KSjhJHpaGO95915Xi68Al0mHjezOjMaXrIuHSQMhOLLJv1KJPn2140CEmsDva3dHh2bItwFaaIbjtIC4JEu3a2TTElnyF8pGEcxq8nopnJZjxWFsHO7Koh4R/Rl8sPmzBb0xBtOm/crSo61fLstPoukWuH5sSzfhTHsSRUkmyohyOCSDUIeBPo85EKebUwvYTdpUoCu5mDzq3C6zzyym9RH4ruYfaTFNJ5/G7pqsb48SQNfrtaWYtgGZ/j/WEthYavq1yc7Hez+OeXWPSH8Y9L1Vfw1X2W+ngoI4GPJ7SPOD74SLIv4kzCToZrlCpIy/CHdYhgxo8AHcZN83JngD3o3+ePYv0J0vouBEDQ5MLcDsfc7cu2poEFnQ4K5tcLxAliMvhvuxkCsHR0+xlGnY7KjHPoHVlpMJJOxkijik+tecJ5+4D+BWxcedK8ejzXmvt3ytDRmBTN5GahPt5pv6ySeYzhbibAhKmwyGOYz8CpqSCu10XhSWVAA+2amUBkTNdhEulc3rEXE8rVS+V2xg3H9bO+CZCB/pPz1YFexB0/+Sso4uxj0/6/rYG328BL5K/h2JKTnZDrmUy+ynhB0IH1cGdgvfqSjvVNyqUqBtNMr9cNAjBRucHYcXcbw8olkyQogM2lrhUdUAbzh0eHc6J+Hv6dUvVV0GGxJ3A6gHr8/DdAxzoD8fFA2xFPuDXd87S0odO/XgNJA/kkRSPnCb8if0kmK9ibt4ixhRyoTAfcmcfByRHH1x+NFniS/oih1iTr34ZuctJAJ/s3s3QCYoX/AO1d3UpXm9dUm+jXk64Mf1A1Idm7t0HvdfL0ei4uWzpsFD9cil1THpmaHE1Eh8O7ByAgKww/Hea8N2nyhX9OtdP8zGeAaWp+mzBRzugYb1IpeUqkDNAxzuQfcEoznkAWDpJD/54Oyzb3pzOTIXf0hBk3SvGm4jNnrqnP+SU8JL6LrUqV5Wkd+U/Gf6xUDdw4AD75z7DR/XgMa/z5h5aDWyICIIpMBocNjFUtxqFSoNe3kZc5HZwK7KFqh1P5n8OJ7b5qy7+CsxPNR67mOqygp81gxCIsZasNXDUqYHsN7pLVhFzGbsvz60Z0shwr16MR9Jfr+L4q4fSmqyl8+3M8z3+AvDkUM65PBtgc/YFvR7/bilKScdYQJlIpJ/92f+yTR68bGI64F/LYkaZ+nMblO8hdR3EdgZyRWEIT0GdSDXBH66Kkd3Xb81f+JPzHStUTljqLYf4ORhdeUjjxs7EXswoaFVI1qEcQObnxA+Aybbnstjr92Il/QKwf8czbY0UDE4mriA+FC3FyPdy2K2l0ZjCIe0SEIt8jtDz2vqbxflCjjHx8mtBtBfy48UuCCBc0EXkimv6R7bToJbJS+hSNnYp4lvqnY9JG0IDOE9CB3unDXiMGRCvTe4eXb2+WyVs480Z/Hv5jpeopHu3WT0B89Q8wdS8mmqJwrY8vl9ePkTgRby9oLIG+/CQl8QWMnuMT8DT2PJqaPc99EGLQ4/ADEhOnCvX7oV6Powx6OE9xD2eBjh0/oj9arSOEr6/GjwnycUz1O/CePL3dt+q8T4+j3h4d1Eccu5l/5ubxy/MQ4yfjv0SqfiqeXwfyN0GD4NvucYaciP4oVP9udE/tc9d4kR+nvT8VEIAGMQfo2/RcB9t0LlW0gu0JxPXZwbUAzeR9P7p9mrX45N1fAn+m5l/AMzcmH/Efwv9GqfqnkJyJb6f0vxS7MtmcEbzx+fa0mOQZnH6JQyTI424vvhbW5/qzIaAfxY+Gk/9B+CVV/zuQRtFO4Ndu23/mLj2H+McgVQIB19e4vYs0cPcLBMb+/84t4XrM2h/dAAAAAElFTkSuQmCC;" parent="1" vertex="1">
          <mxGeometry x="-1143.9155775600295" y="1011.91" width="391.0880857577833" height="45.843971883950886" as="geometry" />
        </mxCell>
        <mxCell id="S0qpPIx2wPPOewk5vcY--22" value="&lt;font style=&quot;font-size: 14px;&quot;&gt;&lt;b&gt;...&lt;/b&gt;&lt;/font&gt;" style="text;html=1;strokeColor=none;fillColor=none;align=center;verticalAlign=middle;whiteSpace=wrap;rounded=0;" parent="1" vertex="1">
          <mxGeometry x="-1122.664331292675" y="817.9519373657884" width="84.62498805891198" height="44.45556241359515" as="geometry" />
        </mxCell>
        <mxCell id="S0qpPIx2wPPOewk5vcY--23" value="&lt;font style=&quot;font-size: 14px;&quot;&gt;&lt;b&gt;...&lt;/b&gt;&lt;/font&gt;" style="text;html=1;strokeColor=none;fillColor=none;align=center;verticalAlign=middle;whiteSpace=wrap;rounded=0;" parent="1" vertex="1">
          <mxGeometry x="-1044.004711244473" y="817.9519373657884" width="84.62498805891198" height="44.45556241359515" as="geometry" />
        </mxCell>
        <mxCell id="S0qpPIx2wPPOewk5vcY--24" value="&lt;font style=&quot;font-size: 14px;&quot;&gt;&lt;b&gt;...&lt;/b&gt;&lt;/font&gt;" style="text;html=1;strokeColor=none;fillColor=none;align=center;verticalAlign=middle;whiteSpace=wrap;rounded=0;" parent="1" vertex="1">
          <mxGeometry x="-965.4606991034553" y="817.9519373657884" width="84.62498805891198" height="44.45556241359515" as="geometry" />
        </mxCell>
        <mxCell id="S0qpPIx2wPPOewk5vcY--32" value="&lt;font style=&quot;font-size: 14px;&quot;&gt;&lt;b&gt;...&lt;/b&gt;&lt;/font&gt;" style="text;html=1;strokeColor=none;fillColor=none;align=center;verticalAlign=middle;whiteSpace=wrap;rounded=0;" parent="1" vertex="1">
          <mxGeometry x="-889.4831825019298" y="817.9519373657884" width="84.62498805891198" height="44.45556241359515" as="geometry" />
        </mxCell>
        <mxCell id="S0qpPIx2wPPOewk5vcY--53" value="" style="group" parent="1" vertex="1" connectable="0">
          <mxGeometry x="-1152.6567218693137" y="773.6051400175155" width="377.95186669407514" height="29.632006189372543" as="geometry" />
        </mxCell>
        <mxCell id="S0qpPIx2wPPOewk5vcY--54" value="" style="rounded=0;whiteSpace=wrap;html=1;fillColor=#C9D6E8;strokeColor=#050505;strokeWidth=1;" parent="S0qpPIx2wPPOewk5vcY--53" vertex="1">
          <mxGeometry x="233.89650803606207" width="66.87411004254456" height="29.63200618937253" as="geometry" />
        </mxCell>
        <mxCell id="S0qpPIx2wPPOewk5vcY--55" value="" style="rounded=0;whiteSpace=wrap;html=1;fillColor=#C9D6E8;strokeColor=#050505;strokeWidth=1;" parent="S0qpPIx2wPPOewk5vcY--53" vertex="1">
          <mxGeometry x="157.01064939878745" width="66.87411004254456" height="29.63200618937253" as="geometry" />
        </mxCell>
        <mxCell id="S0qpPIx2wPPOewk5vcY--56" value="" style="rounded=0;whiteSpace=wrap;html=1;fillColor=#C9D6E8;strokeColor=#050505;strokeWidth=1;" parent="S0qpPIx2wPPOewk5vcY--53" vertex="1">
          <mxGeometry x="78.69741221601473" width="66.87411004254456" height="29.63200618937253" as="geometry" />
        </mxCell>
        <mxCell id="S0qpPIx2wPPOewk5vcY--57" value="" style="rounded=0;whiteSpace=wrap;html=1;fillColor=#C9D6E8;strokeColor=#050505;strokeWidth=1;" parent="S0qpPIx2wPPOewk5vcY--53" vertex="1">
          <mxGeometry width="66.87411004254456" height="29.63200618937253" as="geometry" />
        </mxCell>
        <mxCell id="S0qpPIx2wPPOewk5vcY--58" value="" style="rounded=0;whiteSpace=wrap;html=1;fillColor=#C9D6E8;strokeColor=#050505;strokeWidth=1;" parent="S0qpPIx2wPPOewk5vcY--53" vertex="1">
          <mxGeometry x="311.07775665153054" width="66.87411004254456" height="29.63200618937253" as="geometry" />
        </mxCell>
        <mxCell id="S0qpPIx2wPPOewk5vcY--59" value="" style="group" parent="1" vertex="1" connectable="0">
          <mxGeometry x="-1152.6567218693137" y="810.8312784463756" width="377.95186669407514" height="52.0786965126484" as="geometry" />
        </mxCell>
        <mxCell id="S0qpPIx2wPPOewk5vcY--60" value="" style="rounded=0;whiteSpace=wrap;html=1;fillColor=#C9D6E8;strokeColor=#050505;strokeWidth=1;" parent="S0qpPIx2wPPOewk5vcY--59" vertex="1">
          <mxGeometry x="233.89650803606207" width="66.87411004254456" height="29.63200618937253" as="geometry" />
        </mxCell>
        <mxCell id="S0qpPIx2wPPOewk5vcY--61" value="" style="rounded=0;whiteSpace=wrap;html=1;fillColor=#C9D6E8;strokeColor=#050505;strokeWidth=1;" parent="S0qpPIx2wPPOewk5vcY--59" vertex="1">
          <mxGeometry x="157.01064939878745" width="66.87411004254456" height="29.63200618937253" as="geometry" />
        </mxCell>
        <mxCell id="S0qpPIx2wPPOewk5vcY--62" value="" style="rounded=0;whiteSpace=wrap;html=1;fillColor=#C9D6E8;strokeColor=#050505;strokeWidth=1;" parent="S0qpPIx2wPPOewk5vcY--59" vertex="1">
          <mxGeometry x="78.69741221601473" width="66.87411004254456" height="29.63200618937253" as="geometry" />
        </mxCell>
        <mxCell id="S0qpPIx2wPPOewk5vcY--63" value="" style="rounded=0;whiteSpace=wrap;html=1;fillColor=#C9D6E8;strokeColor=#050505;strokeWidth=1;" parent="S0qpPIx2wPPOewk5vcY--59" vertex="1">
          <mxGeometry width="66.87411004254456" height="29.63200618937253" as="geometry" />
        </mxCell>
        <mxCell id="S0qpPIx2wPPOewk5vcY--64" value="" style="rounded=0;whiteSpace=wrap;html=1;fillColor=#C9D6E8;strokeColor=#050505;strokeWidth=1;" parent="S0qpPIx2wPPOewk5vcY--59" vertex="1">
          <mxGeometry x="311.07775665153054" width="66.87411004254456" height="29.63200618937253" as="geometry" />
        </mxCell>
        <mxCell id="S0qpPIx2wPPOewk5vcY--75" value="&lt;b style=&quot;font-family: &amp;quot;Times New Roman&amp;quot;; font-style: normal; font-variant-ligatures: normal; font-variant-caps: normal; letter-spacing: normal; orphans: 2; text-align: center; text-indent: 0px; text-transform: none; widows: 2; word-spacing: 0px; -webkit-text-stroke-width: 0px; text-decoration-thickness: initial; text-decoration-style: initial; text-decoration-color: initial;&quot;&gt;&lt;font color=&quot;#333333&quot; style=&quot;font-size: 23px;&quot;&gt;Transformers&lt;/font&gt;&lt;/b&gt;" style="text;whiteSpace=wrap;html=1;fontSize=14;fontFamily=Times New Roman;fontColor=#050505;" parent="S0qpPIx2wPPOewk5vcY--59" vertex="1">
          <mxGeometry x="118.75188527079526" y="-7.4831249735276275" width="200.69532687195522" height="59.56182148617603" as="geometry" />
        </mxCell>
        <mxCell id="S0qpPIx2wPPOewk5vcY--65" value="" style="rounded=0;whiteSpace=wrap;html=1;fillColor=#C9D6E8;strokeColor=#050505;strokeWidth=1;" parent="1" vertex="1">
          <mxGeometry x="-918.7602138332516" y="849.5464624123898" width="66.87411004254456" height="29.63200618937253" as="geometry" />
        </mxCell>
        <mxCell id="S0qpPIx2wPPOewk5vcY--66" value="" style="rounded=0;whiteSpace=wrap;html=1;fillColor=#C9D6E8;strokeColor=#050505;strokeWidth=1;" parent="1" vertex="1">
          <mxGeometry x="-995.6460724705264" y="849.5464624123898" width="66.87411004254456" height="29.63200618937253" as="geometry" />
        </mxCell>
        <mxCell id="S0qpPIx2wPPOewk5vcY--67" value="" style="rounded=0;whiteSpace=wrap;html=1;fillColor=#C9D6E8;strokeColor=#050505;strokeWidth=1;" parent="1" vertex="1">
          <mxGeometry x="-1073.9593096532988" y="849.5464624123898" width="66.87411004254456" height="29.63200618937253" as="geometry" />
        </mxCell>
        <mxCell id="S0qpPIx2wPPOewk5vcY--68" value="" style="rounded=0;whiteSpace=wrap;html=1;fillColor=#C9D6E8;strokeColor=#050505;strokeWidth=1;" parent="1" vertex="1">
          <mxGeometry x="-1152.6567218693137" y="849.5464624123898" width="66.87411004254456" height="29.63200618937253" as="geometry" />
        </mxCell>
        <mxCell id="S0qpPIx2wPPOewk5vcY--69" value="" style="rounded=0;whiteSpace=wrap;html=1;fillColor=#C9D6E8;strokeColor=#050505;strokeWidth=1;" parent="1" vertex="1">
          <mxGeometry x="-841.5789652177828" y="849.5464624123898" width="66.87411004254456" height="29.63200618937253" as="geometry" />
        </mxCell>
        <mxCell id="S0qpPIx2wPPOewk5vcY--70" value="" style="rounded=0;whiteSpace=wrap;html=1;fillColor=#C9D6E8;strokeColor=#050505;strokeWidth=1;" parent="1" vertex="1">
          <mxGeometry x="-918.7602138332516" y="886.77260084125" width="66.87411004254456" height="29.63200618937253" as="geometry" />
        </mxCell>
        <mxCell id="S0qpPIx2wPPOewk5vcY--71" value="" style="rounded=0;whiteSpace=wrap;html=1;fillColor=#C9D6E8;strokeColor=#050505;strokeWidth=1;" parent="1" vertex="1">
          <mxGeometry x="-995.6460724705264" y="886.77260084125" width="66.87411004254456" height="29.63200618937253" as="geometry" />
        </mxCell>
        <mxCell id="S0qpPIx2wPPOewk5vcY--72" value="" style="rounded=0;whiteSpace=wrap;html=1;fillColor=#C9D6E8;strokeColor=#050505;strokeWidth=1;" parent="1" vertex="1">
          <mxGeometry x="-1073.9593096532988" y="886.77260084125" width="66.87411004254456" height="29.63200618937253" as="geometry" />
        </mxCell>
        <mxCell id="S0qpPIx2wPPOewk5vcY--73" value="" style="rounded=0;whiteSpace=wrap;html=1;fillColor=#C9D6E8;strokeColor=#050505;strokeWidth=1;" parent="1" vertex="1">
          <mxGeometry x="-1152.6567218693137" y="886.77260084125" width="66.87411004254456" height="29.63200618937253" as="geometry" />
        </mxCell>
        <mxCell id="S0qpPIx2wPPOewk5vcY--74" value="" style="rounded=0;whiteSpace=wrap;html=1;fillColor=#C9D6E8;strokeColor=#050505;strokeWidth=1;" parent="1" vertex="1">
          <mxGeometry x="-841.5789652177828" y="886.77260084125" width="66.87411004254456" height="29.63200618937253" as="geometry" />
        </mxCell>
        <mxCell id="S0qpPIx2wPPOewk5vcY--36" value="" style="rounded=1;whiteSpace=wrap;html=1;fontSize=14;strokeWidth=2;fillColor=none;" parent="1" vertex="1">
          <mxGeometry x="-1574.999623512124" y="729.62" width="860.0781709347332" height="371.09" as="geometry" />
        </mxCell>
        <mxCell id="cYHdGU8QMq9EJoT3NB7b-66" value="" style="group" parent="1" vertex="1" connectable="0">
          <mxGeometry x="-400" y="558.55" width="400" height="611.63" as="geometry" />
        </mxCell>
        <mxCell id="cYHdGU8QMq9EJoT3NB7b-42" value="" style="rounded=1;whiteSpace=wrap;html=1;fontSize=18;strokeWidth=2;fillColor=#CDDAED;strokeColor=#050505;rotation=-180;" parent="cYHdGU8QMq9EJoT3NB7b-66" vertex="1">
          <mxGeometry y="32.04941200000005" width="256.5312971776671" height="558.8952613999999" as="geometry" />
        </mxCell>
        <mxCell id="cYHdGU8QMq9EJoT3NB7b-43" value="&lt;b&gt;&lt;font style=&quot;font-size: 16px;&quot;&gt;Layer Norm&lt;/font&gt;&lt;/b&gt;" style="rounded=1;whiteSpace=wrap;html=1;fontSize=18;strokeWidth=2;fillColor=#d5e8d4;strokeColor=#000000;rotation=0;opacity=70;arcSize=19;" parent="cYHdGU8QMq9EJoT3NB7b-66" vertex="1">
          <mxGeometry x="37.41081417174312" y="66.05604" width="177.43414721455306" height="31.804759999999995" as="geometry" />
        </mxCell>
        <mxCell id="cYHdGU8QMq9EJoT3NB7b-44" value="+" style="ellipse;whiteSpace=wrap;html=1;aspect=fixed;fontFamily=Verdana;fontSize=20;strokeColor=#050505;strokeWidth=2;fillColor=#CDDAED;" parent="cYHdGU8QMq9EJoT3NB7b-66" vertex="1">
          <mxGeometry x="109.56024150296199" y="123.54925999999998" width="32.06641214720839" height="32.06641214720839" as="geometry" />
        </mxCell>
        <mxCell id="cYHdGU8QMq9EJoT3NB7b-45" value="&lt;b&gt;Feed-forward layer&lt;/b&gt;" style="rounded=1;whiteSpace=wrap;html=1;fontSize=18;strokeWidth=2;fillColor=#ffe6cc;strokeColor=#000000;rotation=0;opacity=70;" parent="cYHdGU8QMq9EJoT3NB7b-66" vertex="1">
          <mxGeometry x="35.44407422671431" y="433.03403999999995" width="181.36762710461065" height="48.93039999999999" as="geometry" />
        </mxCell>
        <mxCell id="cYHdGU8QMq9EJoT3NB7b-46" value="&lt;b&gt;&lt;font style=&quot;font-size: 17px;&quot;&gt;Multi-headed attention&lt;/font&gt;&lt;/b&gt;" style="rounded=1;whiteSpace=wrap;html=1;fontSize=18;strokeWidth=2;fillColor=#fff2cc;strokeColor=#000000;rotation=0;opacity=70;" parent="cYHdGU8QMq9EJoT3NB7b-66" vertex="1">
          <mxGeometry x="40.083015184010485" y="499.09008000000006" width="172.08974519001833" height="57.493219999999994" as="geometry" />
        </mxCell>
        <mxCell id="cYHdGU8QMq9EJoT3NB7b-47" value="+" style="ellipse;whiteSpace=wrap;html=1;aspect=fixed;fontFamily=Verdana;fontSize=20;strokeColor=#050505;strokeWidth=2;fillColor=#CDDAED;" parent="cYHdGU8QMq9EJoT3NB7b-66" vertex="1">
          <mxGeometry x="110.09468170541547" y="381.6938177999999" width="32.06641214720839" height="32.06641214720839" as="geometry" />
        </mxCell>
        <mxCell id="cYHdGU8QMq9EJoT3NB7b-48" value="&lt;b style=&quot;&quot;&gt;&lt;font style=&quot;font-size: 16px;&quot;&gt;2 x Feed-forward layer&lt;/font&gt;&lt;/b&gt;" style="rounded=1;whiteSpace=wrap;html=1;fontSize=18;strokeWidth=2;fillColor=#ffe6cc;strokeColor=#000000;rotation=0;opacity=70;" parent="cYHdGU8QMq9EJoT3NB7b-66" vertex="1">
          <mxGeometry x="44.89297700609174" y="233.64265999999995" width="161.40094114094887" height="51.37691999999999" as="geometry" />
        </mxCell>
        <mxCell id="cYHdGU8QMq9EJoT3NB7b-49" value="&lt;b&gt;&lt;font style=&quot;font-size: 18px;&quot;&gt;Layer Norm&lt;/font&gt;&lt;/b&gt;" style="rounded=1;whiteSpace=wrap;html=1;fontSize=18;strokeWidth=2;fillColor=#d5e8d4;strokeColor=#000000;rotation=0;opacity=70;arcSize=19;" parent="cYHdGU8QMq9EJoT3NB7b-66" vertex="1">
          <mxGeometry x="36.876373969289645" y="319.27085999999997" width="177.43414721455306" height="36.661102199999995" as="geometry" />
        </mxCell>
        <mxCell id="cYHdGU8QMq9EJoT3NB7b-50" value="" style="endArrow=classic;html=1;rounded=0;fontFamily=Verdana;fontSize=16;sourcePerimeterSpacing=2;targetPerimeterSpacing=2;strokeWidth=2;jumpStyle=arc;entryX=0.5;entryY=1;entryDx=0;entryDy=0;exitX=0.5;exitY=0;exitDx=0;exitDy=0;" parent="cYHdGU8QMq9EJoT3NB7b-66" source="cYHdGU8QMq9EJoT3NB7b-44" target="cYHdGU8QMq9EJoT3NB7b-43" edge="1">
          <mxGeometry width="50" height="50" relative="1" as="geometry">
            <mxPoint x="126.50568753607384" y="133.33611273949978" as="sourcePoint" />
            <mxPoint x="126.12788777901966" y="117.43296000000012" as="targetPoint" />
          </mxGeometry>
        </mxCell>
        <mxCell id="cYHdGU8QMq9EJoT3NB7b-51" value="&lt;font face=&quot;Helvetica&quot; size=&quot;1&quot; style=&quot;&quot;&gt;&lt;b style=&quot;font-size: 16px;&quot;&gt;Adapter (Optional)&lt;/b&gt;&lt;/font&gt;" style="rounded=1;whiteSpace=wrap;html=1;labelBackgroundColor=none;fontFamily=Verdana;fontSize=16;strokeColor=#000000;strokeWidth=2;fillColor=#f5f5f5;fontColor=#333333;dashed=1;" parent="cYHdGU8QMq9EJoT3NB7b-66" vertex="1">
          <mxGeometry x="45.427417208545215" y="178.59595999999996" width="160.33206073604194" height="36.697799999999994" as="geometry" />
        </mxCell>
        <mxCell id="cYHdGU8QMq9EJoT3NB7b-52" value="" style="endArrow=none;html=1;rounded=0;fontFamily=Helvetica;fontSize=16;sourcePerimeterSpacing=2;targetPerimeterSpacing=2;strokeWidth=2;jumpStyle=arc;exitX=0.5;exitY=0;exitDx=0;exitDy=0;entryX=0.5;entryY=1;entryDx=0;entryDy=0;endFill=0;" parent="cYHdGU8QMq9EJoT3NB7b-66" source="cYHdGU8QMq9EJoT3NB7b-51" target="cYHdGU8QMq9EJoT3NB7b-44" edge="1">
          <mxGeometry width="50" height="50" relative="1" as="geometry">
            <mxPoint x="235.15368907952816" y="330.2801999999999" as="sourcePoint" />
            <mxPoint x="288.5977093248755" y="269.11719999999997" as="targetPoint" />
          </mxGeometry>
        </mxCell>
        <mxCell id="cYHdGU8QMq9EJoT3NB7b-53" value="" style="endArrow=none;html=1;rounded=0;fontFamily=Helvetica;fontSize=16;sourcePerimeterSpacing=2;targetPerimeterSpacing=2;strokeWidth=2;jumpStyle=arc;exitX=0.5;exitY=0;exitDx=0;exitDy=0;entryX=0.5;entryY=1;entryDx=0;entryDy=0;endFill=0;" parent="cYHdGU8QMq9EJoT3NB7b-66" source="cYHdGU8QMq9EJoT3NB7b-48" target="cYHdGU8QMq9EJoT3NB7b-51" edge="1">
          <mxGeometry width="50" height="50" relative="1" as="geometry">
            <mxPoint x="235.15368907952816" y="330.2801999999999" as="sourcePoint" />
            <mxPoint x="288.5977093248755" y="269.11719999999997" as="targetPoint" />
          </mxGeometry>
        </mxCell>
        <mxCell id="cYHdGU8QMq9EJoT3NB7b-54" value="" style="endArrow=classic;html=1;rounded=0;fontFamily=Helvetica;fontSize=16;sourcePerimeterSpacing=2;targetPerimeterSpacing=2;strokeWidth=2;jumpStyle=arc;exitX=0.5;exitY=0;exitDx=0;exitDy=0;entryX=0.5;entryY=1;entryDx=0;entryDy=0;endFill=1;" parent="cYHdGU8QMq9EJoT3NB7b-66" source="cYHdGU8QMq9EJoT3NB7b-49" target="cYHdGU8QMq9EJoT3NB7b-48" edge="1">
          <mxGeometry width="50" height="50" relative="1" as="geometry">
            <mxPoint x="235.15368907952816" y="403.6757999999999" as="sourcePoint" />
            <mxPoint x="288.5977093248755" y="342.51279999999997" as="targetPoint" />
          </mxGeometry>
        </mxCell>
        <mxCell id="cYHdGU8QMq9EJoT3NB7b-55" value="" style="endArrow=classic;html=1;rounded=0;fontFamily=Helvetica;fontSize=16;sourcePerimeterSpacing=2;targetPerimeterSpacing=2;strokeWidth=2;jumpStyle=arc;exitX=0.5;exitY=0;exitDx=0;exitDy=0;entryX=0.5;entryY=1;entryDx=0;entryDy=0;endFill=1;" parent="cYHdGU8QMq9EJoT3NB7b-66" source="cYHdGU8QMq9EJoT3NB7b-47" target="cYHdGU8QMq9EJoT3NB7b-49" edge="1">
          <mxGeometry width="50" height="50" relative="1" as="geometry">
            <mxPoint x="235.15368907952816" y="489.3039999999999" as="sourcePoint" />
            <mxPoint x="288.5977093248755" y="428.1409999999999" as="targetPoint" />
          </mxGeometry>
        </mxCell>
        <mxCell id="cYHdGU8QMq9EJoT3NB7b-56" value="" style="endArrow=none;html=1;rounded=0;fontFamily=Helvetica;fontSize=16;sourcePerimeterSpacing=2;targetPerimeterSpacing=2;strokeWidth=2;jumpStyle=arc;exitX=0.5;exitY=0;exitDx=0;exitDy=0;entryX=0.5;entryY=1;entryDx=0;entryDy=0;endFill=0;" parent="cYHdGU8QMq9EJoT3NB7b-66" source="cYHdGU8QMq9EJoT3NB7b-45" target="cYHdGU8QMq9EJoT3NB7b-47" edge="1">
          <mxGeometry width="50" height="50" relative="1" as="geometry">
            <mxPoint x="235.15368907952816" y="489.3039999999999" as="sourcePoint" />
            <mxPoint x="288.5977093248755" y="428.1409999999999" as="targetPoint" />
          </mxGeometry>
        </mxCell>
        <mxCell id="cYHdGU8QMq9EJoT3NB7b-57" value="" style="endArrow=none;html=1;rounded=0;fontFamily=Helvetica;fontSize=16;sourcePerimeterSpacing=0;targetPerimeterSpacing=0;strokeWidth=2;jumpStyle=arc;exitX=0.5;exitY=0;exitDx=0;exitDy=0;entryX=0.5;entryY=1;entryDx=0;entryDy=0;endSize=0;startSize=0;endFill=0;" parent="cYHdGU8QMq9EJoT3NB7b-66" source="cYHdGU8QMq9EJoT3NB7b-46" target="cYHdGU8QMq9EJoT3NB7b-45" edge="1">
          <mxGeometry width="50" height="50" relative="1" as="geometry">
            <mxPoint x="235.15368907952816" y="489.3039999999999" as="sourcePoint" />
            <mxPoint x="288.5977093248755" y="428.1409999999999" as="targetPoint" />
          </mxGeometry>
        </mxCell>
        <mxCell id="cYHdGU8QMq9EJoT3NB7b-58" value="" style="endArrow=classic;html=1;rounded=0;fontFamily=Helvetica;fontSize=16;sourcePerimeterSpacing=0;targetPerimeterSpacing=0;strokeWidth=2;jumpStyle=arc;entryX=0.5;entryY=1;entryDx=0;entryDy=0;" parent="cYHdGU8QMq9EJoT3NB7b-66" target="cYHdGU8QMq9EJoT3NB7b-46" edge="1">
          <mxGeometry width="50" height="50" relative="1" as="geometry">
            <mxPoint x="126.12788777901966" y="611.63" as="sourcePoint" />
            <mxPoint x="123.4556867667523" y="562.6996" as="targetPoint" />
          </mxGeometry>
        </mxCell>
        <mxCell id="cYHdGU8QMq9EJoT3NB7b-59" value="" style="endArrow=none;html=1;rounded=0;fontFamily=Helvetica;fontSize=16;sourcePerimeterSpacing=0;targetPerimeterSpacing=0;strokeWidth=2;jumpStyle=arc;entryX=1;entryY=0.5;entryDx=0;entryDy=0;endFill=0;" parent="cYHdGU8QMq9EJoT3NB7b-66" target="cYHdGU8QMq9EJoT3NB7b-47" edge="1">
          <mxGeometry width="50" height="50" relative="1" as="geometry">
            <mxPoint x="125.05900737411271" y="574.9322000000001" as="sourcePoint" />
            <mxPoint x="42.75521619627785" y="538.2344" as="targetPoint" />
            <Array as="points">
              <mxPoint x="235.15368907952816" y="574.9322000000001" />
              <mxPoint x="235.15368907952816" y="400.0060199999999" />
            </Array>
          </mxGeometry>
        </mxCell>
        <mxCell id="cYHdGU8QMq9EJoT3NB7b-60" value="" style="endArrow=none;html=1;rounded=0;fontFamily=Helvetica;fontSize=16;sourcePerimeterSpacing=0;targetPerimeterSpacing=0;strokeWidth=2;jumpStyle=arc;entryX=1;entryY=0.5;entryDx=0;entryDy=0;endFill=0;" parent="cYHdGU8QMq9EJoT3NB7b-66" target="cYHdGU8QMq9EJoT3NB7b-44" edge="1">
          <mxGeometry width="50" height="50" relative="1" as="geometry">
            <mxPoint x="126.12788777901966" y="305.81499999999994" as="sourcePoint" />
            <mxPoint x="53.44402024534731" y="305.81499999999994" as="targetPoint" />
            <Array as="points">
              <mxPoint x="224.4648850304587" y="305.81499999999994" />
              <mxPoint x="224.4648850304587" y="141.89815999999996" />
            </Array>
          </mxGeometry>
        </mxCell>
        <mxCell id="cYHdGU8QMq9EJoT3NB7b-61" value="" style="endArrow=classic;html=1;rounded=0;fontFamily=Helvetica;fontSize=16;sourcePerimeterSpacing=0;targetPerimeterSpacing=0;strokeWidth=2;jumpStyle=arc;exitX=0.5;exitY=0;exitDx=0;exitDy=0;" parent="cYHdGU8QMq9EJoT3NB7b-66" source="cYHdGU8QMq9EJoT3NB7b-43" edge="1">
          <mxGeometry width="50" height="50" relative="1" as="geometry">
            <mxPoint x="-32.06641214720839" y="256.8846" as="sourcePoint" />
            <mxPoint x="126.12788777901966" as="targetPoint" />
          </mxGeometry>
        </mxCell>
        <mxCell id="cYHdGU8QMq9EJoT3NB7b-65" value="&lt;font style=&quot;font-size: 10px;&quot;&gt;Prompt Tokens&lt;/font&gt;" style="rounded=1;whiteSpace=wrap;html=1;fontSize=14;strokeWidth=1;fillColor=#f8cecc;strokeColor=#050505;" parent="cYHdGU8QMq9EJoT3NB7b-66" vertex="1">
          <mxGeometry x="271" y="495" width="90" height="29.27" as="geometry" />
        </mxCell>
        <mxCell id="ZJ77E0A5r384hNluEcxH-1" value="&lt;font style=&quot;font-size: 10px;&quot;&gt;Prompt Tokens&lt;/font&gt;" style="rounded=1;whiteSpace=wrap;html=1;fontSize=14;strokeWidth=1;fillColor=#f8cecc;strokeColor=#050505;" vertex="1" parent="cYHdGU8QMq9EJoT3NB7b-66">
          <mxGeometry x="281" y="501.58000000000004" width="90" height="29.27" as="geometry" />
        </mxCell>
        <mxCell id="ZJ77E0A5r384hNluEcxH-2" value="&lt;font style=&quot;font-size: 10px;&quot;&gt;Prompt Tokens&lt;/font&gt;" style="rounded=1;whiteSpace=wrap;html=1;fontSize=14;strokeWidth=1;fillColor=#f8cecc;strokeColor=#050505;" vertex="1" parent="1">
          <mxGeometry x="-109" y="1070.13" width="90" height="29.27" as="geometry" />
        </mxCell>
        <mxCell id="ZJ77E0A5r384hNluEcxH-3" value="&lt;font style=&quot;font-size: 10px;&quot;&gt;Prompt Tokens&lt;/font&gt;" style="rounded=1;whiteSpace=wrap;html=1;fontSize=14;strokeWidth=1;fillColor=#f8cecc;strokeColor=#050505;" vertex="1" parent="1">
          <mxGeometry x="-99" y="1080.13" width="90" height="29.27" as="geometry" />
        </mxCell>
        <mxCell id="ZJ77E0A5r384hNluEcxH-4" value="" style="shape=flexArrow;endArrow=classic;html=1;rounded=0;fontSize=10;fontColor=#333333;exitX=0.929;exitY=0.737;exitDx=0;exitDy=0;exitPerimeter=0;" edge="1" parent="1">
          <mxGeometry width="50" height="50" relative="1" as="geometry">
            <mxPoint x="-200.0456115344623" y="1088.01258314" as="sourcePoint" />
            <mxPoint x="-130" y="1088" as="targetPoint" />
          </mxGeometry>
        </mxCell>
      </root>
    </mxGraphModel>
  </diagram>
</mxfile>
